{
copyright = "(c) Copyright Pooja Saxena, 2014.";
date = "2014-09-16 05:41:12 +0000";
designer = "Pooja Saxena";
designerURL = "http://www.poojasaxena.in/";
familyName = "Cambay Devanagari";
fontMaster = (
{
ascender = 800;
capHeight = 700;
descender = "-200";
guideLines = (
{
position = "{-250, 466}";
},
{
position = "{-263, 396}";
}
);
id = "CFA4B904-E3F1-48B6-A7F6-47DC1FF2A3E1";
weight = Bold;
xHeight = 500;
}
);
glyphs = (
{
glyphname = kadeva;
lastChange = "2014-09-16 06:13:03 +0530";
layers = (
{
anchors = (
{
name = bottom;
position = "{327, 5}";
},
{
name = top;
position = "{327, 447}";
}
);
background = {
paths = (
{
closed = 1;
nodes = (
"572 291 OFFCURVE",
"512 345 OFFCURVE",
"425 345 CURVE SMOOTH",
"353 345 OFFCURVE",
"320 308 OFFCURVE",
"293 290 CURVE",
"307 205 LINE",
"323 217 OFFCURVE",
"375 262 OFFCURVE",
"421 262 CURVE SMOOTH",
"466 262 OFFCURVE",
"485 236 OFFCURVE",
"485 200 CURVE SMOOTH",
"485 154 OFFCURVE",
"460 134 OFFCURVE",
"431 107 CURVE",
"492 46 LINE",
"539 85 OFFCURVE",
"572 125 OFFCURVE",
"572 199 CURVE SMOOTH"
);
},
{
closed = 1;
nodes = (
"-4 466 LINE",
"-4 396 LINE",
"618 396 LINE",
"618 466 LINE"
);
},
{
closed = 1;
nodes = (
"279 0 LINE",
"364 0 LINE",
"364 466 LINE",
"279 466 LINE"
);
},
{
closed = 1;
nodes = (
"124 245 OFFCURVE",
"163 265 OFFCURVE",
"209 265 CURVE SMOOTH",
"261 265 OFFCURVE",
"287 240 OFFCURVE",
"303 223 CURVE",
"319 304 LINE",
"292 320 OFFCURVE",
"259 345 OFFCURVE",
"195 345 CURVE SMOOTH",
"112 345 OFFCURVE",
"40 295 OFFCURVE",
"40 197 CURVE SMOOTH",
"40 103 OFFCURVE",
"112 50 OFFCURVE",
"195 50 CURVE SMOOTH",
"257 50 OFFCURVE",
"292 72 OFFCURVE",
"319 90 CURVE",
"303 170 LINE",
"287 158 OFFCURVE",
"261 129 OFFCURVE",
"209 129 CURVE SMOOTH",
"163 129 OFFCURVE",
"124 149 OFFCURVE",
"124 197 CURVE SMOOTH"
);
}
);
};
layerId = "CFA4B904-E3F1-48B6-A7F6-47DC1FF2A3E1";
name = Bold;
paths = (
{
closed = 1;
nodes = (
"564 291 OFFCURVE",
"504 340 OFFCURVE",
"422 340 CURVE SMOOTH",
"350 340 OFFCURVE",
"317 303 OFFCURVE",
"290 285 CURVE",
"304 205 LINE",
"320 217 OFFCURVE",
"372 262 OFFCURVE",
"418 262 CURVE SMOOTH",
"463 262 OFFCURVE",
"482 236 OFFCURVE",
"482 200 CURVE SMOOTH",
"482 154 OFFCURVE",
"449 127 OFFCURVE",
"428 107 CURVE",
"485 50 LINE",
"525 83 OFFCURVE",
"564 129 OFFCURVE",
"564 199 CURVE SMOOTH"
);
},
{
closed = 1;
nodes = (
"-24 466 LINE",
"-24 396 LINE",
"635 396 LINE",
"635 466 LINE"
);
},
{
closed = 1;
nodes = (
"279 0 LINE",
"361 0 LINE",
"361 466 LINE",
"279 466 LINE"
);
},
{
closed = 1;
nodes = (
"124 245 OFFCURVE",
"163 265 OFFCURVE",
"209 265 CURVE SMOOTH",
"261 265 OFFCURVE",
"287 240 OFFCURVE",
"303 223 CURVE",
"319 299 LINE",
"292 315 OFFCURVE",
"259 340 OFFCURVE",
"195 340 CURVE SMOOTH",
"112 340 OFFCURVE",
"45 290 OFFCURVE",
"45 197 CURVE SMOOTH",
"45 108 OFFCURVE",
"112 55 OFFCURVE",
"195 55 CURVE SMOOTH",
"257 55 OFFCURVE",
"292 77 OFFCURVE",
"319 95 CURVE",
"303 170 LINE",
"287 158 OFFCURVE",
"261 129 OFFCURVE",
"209 129 CURVE SMOOTH",
"163 129 OFFCURVE",
"124 149 OFFCURVE",
"124 197 CURVE SMOOTH"
);
}
);
width = 611;
}
);
unicode = 0915;
},
{
glyphname = khadeva;
lastChange = "2014-09-16 06:13:03 +0530";
layers = (
{
anchors = (
{
name = bottom;
position = "{518, 5}";
},
{
name = top;
position = "{518, 447}";
}
);
background = {
paths = (
{
closed = 1;
nodes = (
"472 0 LINE",
"525 0 LINE",
"525 456 LINE",
"472 456 LINE"
);
},
{
closed = 1;
nodes = (
"-24 456 LINE",
"-24 408 LINE",
"623 408 LINE",
"623 456 LINE"
);
},
{
closed = 1;
nodes = (
"91 427 OFFCURVE",
"162 403 OFFCURVE",
"162 306 CURVE SMOOTH",
"162 209 OFFCURVE",
"48 206 OFFCURVE",
"48 206 CURVE SMOOTH",
"48 206 OFFCURVE",
"70 157 OFFCURVE",
"70 157 CURVE",
"109 157 OFFCURVE",
"216 191 OFFCURVE",
"216 304 CURVE SMOOTH",
"216 412 OFFCURVE",
"143 443 OFFCURVE",
"143 443 CURVE",
"91 427 LINE"
);
},
{
closed = 1;
nodes = (
"18 212 OFFCURVE",
"213 -17 OFFCURVE",
"213 -17 CURVE SMOOTH",
"213 -17 OFFCURVE",
"257 18 OFFCURVE",
"257 18 CURVE",
"58 246 LINE",
"18 212 LINE"
);
},
{
closed = 1;
nodes = (
"244 121 OFFCURVE",
"304 70 OFFCURVE",
"387 70 CURVE SMOOTH",
"449 70 OFFCURVE",
"482 97 OFFCURVE",
"509 115 CURVE",
"495 166 LINE",
"479 154 OFFCURVE",
"453 121 OFFCURVE",
"396 121 CURVE SMOOTH",
"337 121 OFFCURVE",
"300 148 OFFCURVE",
"300 202 CURVE SMOOTH",
"300 255 OFFCURVE",
"337 283 OFFCURVE",
"391 283 CURVE SMOOTH",
"443 283 OFFCURVE",
"479 250 OFFCURVE",
"495 238 CURVE",
"509 289 LINE",
"482 307 OFFCURVE",
"439 334 OFFCURVE",
"387 334 CURVE SMOOTH",
"304 334 OFFCURVE",
"244 283 OFFCURVE",
"244 202 CURVE SMOOTH"
);
}
);
};
guideLines = (
{
angle = 90;
position = "{499, 204}";
}
);
layerId = "CFA4B904-E3F1-48B6-A7F6-47DC1FF2A3E1";
name = Bold;
paths = (
{
closed = 1;
nodes = (
"74 423 OFFCURVE",
"160 403 OFFCURVE",
"160 306 CURVE SMOOTH",
"160 217 OFFCURVE",
"51 216 OFFCURVE",
"51 216 CURVE SMOOTH",
"51 216 OFFCURVE",
"81 148 OFFCURVE",
"81 148 CURVE",
"139 148 OFFCURVE",
"238 195 OFFCURVE",
"238 304 CURVE SMOOTH",
"238 410 OFFCURVE",
"150 448 OFFCURVE",
"150 448 CURVE",
"74 423 LINE"
);
},
{
closed = 1;
nodes = (
"205 -25 LINE",
"205 -25 OFFCURVE",
"267 26 OFFCURVE",
"267 26 CURVE",
"67 254 LINE",
"9 205 LINE"
);
},
{
closed = 1;
nodes = (
"-24 466 LINE",
"-24 396 LINE",
"294 396 LINE",
"294 466 LINE"
);
},
{
closed = 1;
nodes = (
"200 466 LINE",
"200 396 LINE",
"652 396 LINE",
"652 466 LINE"
);
},
{
closed = 1;
nodes = (
"338 245 OFFCURVE",
"367 265 OFFCURVE",
"413 265 CURVE SMOOTH",
"475 265 OFFCURVE",
"501 220 OFFCURVE",
"517 203 CURVE",
"533 284 LINE",
"515 307 OFFCURVE",
"469 345 OFFCURVE",
"405 345 CURVE SMOOTH",
"322 345 OFFCURVE",
"254 295 OFFCURVE",
"254 197 CURVE SMOOTH",
"254 103 OFFCURVE",
"326 53 OFFCURVE",
"409 53 CURVE SMOOTH",
"481 53 OFFCURVE",
"506 82 OFFCURVE",
"533 100 CURVE",
"517 180 LINE",
"501 163 OFFCURVE",
"475 129 OFFCURVE",
"423 129 CURVE SMOOTH",
"377 129 OFFCURVE",
"338 149 OFFCURVE",
"338 197 CURVE SMOOTH"
);
},
{
closed = 1;
nodes = (
"475 0 LINE",
"560 0 LINE",
"560 466 LINE",
"475 466 LINE"
);
}
);
width = 628;
}
);
unicode = 0916;
},
{
glyphname = gadeva;
lastChange = "2014-09-16 06:13:03 +0530";
layers = (
{
anchors = (
{
name = bottom;
position = "{355, 5}";
},
{
name = top;
position = "{355, 447}";
}
);
background = {
paths = (
{
closed = 1;
nodes = (
"327 0 LINE",
"383 0 LINE",
"383 456 LINE",
"327 456 LINE"
);
},
{
closed = 1;
nodes = (
"106 151 LINE",
"161 151 LINE",
"161 456 LINE",
"106 456 LINE"
);
},
{
closed = 1;
nodes = (
"-14 456 LINE",
"-14 408 LINE",
"481 408 LINE",
"481 456 LINE"
);
},
{
closed = 1;
nodes = (
"48 215 LINE",
"48 181 LINE",
"123 90 LINE",
"123 90 OFFCURVE",
"161 90 OFFCURVE",
"161 90 CURVE",
"161 215 LINE"
);
}
);
};
guideLines = (
{
angle = 90;
position = "{355, 66}";
}
);
layerId = "CFA4B904-E3F1-48B6-A7F6-47DC1FF2A3E1";
name = Bold;
paths = (
{
closed = 1;
nodes = (
"-24 466 LINE",
"-24 396 LINE",
"488 396 LINE",
"488 466 LINE"
);
},
{
closed = 1;
nodes = (
"311 0 LINE",
"396 0 LINE",
"396 466 LINE",
"311 466 LINE"
);
},
{
closed = 1;
nodes = (
"31 240 LINE",
"31 198 LINE",
"121 75 LINE",
"121 75 OFFCURVE",
"178 75 OFFCURVE",
"178 75 CURVE",
"178 240 LINE"
);
},
{
closed = 1;
nodes = (
"93 180 LINE",
"178 180 LINE",
"178 466 LINE",
"93 466 LINE"
);
}
);
width = 464;
}
);
unicode = 0917;
},
{
glyphname = ghadeva;
lastChange = "2014-09-16 06:13:03 +0530";
layers = (
{
anchors = (
{
name = bottom;
position = "{391, 5}";
},
{
name = top;
position = "{391, 447}";
}
);
background = {
paths = (
{
closed = 1;
nodes = (
"223 277 LINE",
"223 277 OFFCURVE",
"124 281 OFFCURVE",
"124 354 CURVE SMOOTH",
"124 426 OFFCURVE",
"203 456 OFFCURVE",
"203 456 CURVE SMOOTH",
"97 456 LINE SMOOTH",
"97 456 OFFCURVE",
"37 422 OFFCURVE",
"37 354 CURVE SMOOTH",
"37 279 OFFCURVE",
"100 249 OFFCURVE",
"116 237 CURVE"
);
},
{
closed = 1;
nodes = (
"117 305 OFFCURVE",
"61 255 OFFCURVE",
"61 191 CURVE SMOOTH",
"61 109 OFFCURVE",
"131 58 OFFCURVE",
"227 58 CURVE SMOOTH",
"312 58 OFFCURVE",
"367 104 OFFCURVE",
"367 105 CURVE",
"367 201 LINE",
"367 201 OFFCURVE",
"314 139 OFFCURVE",
"224 139 CURVE SMOOTH",
"186 139 OFFCURVE",
"149 154 OFFCURVE",
"149 184 CURVE SMOOTH",
"149 210 OFFCURVE",
"184 229 OFFCURVE",
"251 237 CURVE",
"231 313 LINE"
);
},
{
closed = 1;
nodes = (
"-24 466 LINE",
"-24 396 LINE",
"507 396 LINE",
"507 466 LINE"
);
},
{
closed = 1;
nodes = (
"340 0 LINE",
"425 0 LINE",
"425 466 LINE",
"340 466 LINE"
);
}
);
};
guideLines = (
{
angle = 90;
position = "{391, 239}";
}
);
layerId = "CFA4B904-E3F1-48B6-A7F6-47DC1FF2A3E1";
name = Bold;
paths = (
{
closed = 1;
nodes = (
"223 277 LINE",
"223 277 OFFCURVE",
"124 284 OFFCURVE",
"124 354 CURVE SMOOTH",
"124 426 OFFCURVE",
"203 456 OFFCURVE",
"203 456 CURVE SMOOTH",
"100 456 LINE SMOOTH",
"100 456 OFFCURVE",
"40 422 OFFCURVE",
"40 354 CURVE SMOOTH",
"40 279 OFFCURVE",
"103 249 OFFCURVE",
"119 237 CURVE"
);
},
{
closed = 1;
nodes = (
"117 294 OFFCURVE",
"64 255 OFFCURVE",
"64 191 CURVE SMOOTH",
"64 109 OFFCURVE",
"131 61 OFFCURVE",
"227 61 CURVE SMOOTH",
"312 61 OFFCURVE",
"367 107 OFFCURVE",
"367 108 CURVE",
"367 201 LINE",
"367 201 OFFCURVE",
"314 139 OFFCURVE",
"224 139 CURVE SMOOTH",
"186 139 OFFCURVE",
"149 154 OFFCURVE",
"149 184 CURVE SMOOTH",
"149 210 OFFCURVE",
"184 229 OFFCURVE",
"251 237 CURVE",
"231 310 LINE"
);
},
{
closed = 1;
nodes = (
"-24 466 LINE",
"-24 396 LINE",
"517 396 LINE",
"517 466 LINE"
);
},
{
closed = 1;
nodes = (
"340 0 LINE",
"425 0 LINE",
"425 466 LINE",
"340 466 LINE"
);
}
);
width = 493;
}
);
unicode = 0918;
},
{
glyphname = ngadeva;
lastChange = "2014-09-16 06:13:03 +0530";
layers = (
{
anchors = (
{
name = bottom;
position = "{225, -25}";
},
{
name = top;
position = "{302, 447}";
}
);
background = {
paths = (
{
closed = 1;
nodes = (
"434 207 LINE",
"434 266 LINE",
"373 266 LINE",
"373 207 LINE"
);
},
{
closed = 1;
nodes = (
"-24 456 LINE",
"-24 408 LINE",
"500 408 LINE",
"500 456 LINE"
);
},
{
closed = 1;
nodes = (
"280 171 OFFCURVE",
"309 153 OFFCURVE",
"309 116 CURVE SMOOTH",
"309 73 OFFCURVE",
"268 52 OFFCURVE",
"224 52 CURVE SMOOTH",
"165 52 OFFCURVE",
"116 81 OFFCURVE",
"68 128 CURVE",
"34 91 LINE",
"86 38 OFFCURVE",
"149 0 OFFCURVE",
"225 0 CURVE SMOOTH",
"306 0 OFFCURVE",
"363 46 OFFCURVE",
"363 120 CURVE SMOOTH",
"363 181 OFFCURVE",
"310 220 OFFCURVE",
"238 216 CURVE SMOOTH",
"186 213 OFFCURVE",
"133 212 OFFCURVE",
"133 256 CURVE SMOOTH",
"133 284 OFFCURVE",
"156 294 OFFCURVE",
"206 294 CURVE SMOOTH",
"268 294 OFFCURVE",
"285 289 OFFCURVE",
"320 285 CURVE",
"330 292 LINE",
"330 456 LINE",
"274 456 LINE",
"274 343 LINE",
"253 345 OFFCURVE",
"241 346 OFFCURVE",
"208 346 CURVE SMOOTH",
"131 346 OFFCURVE",
"80 322 OFFCURVE",
"80 259 CURVE SMOOTH",
"80 162 OFFCURVE",
"182 161 OFFCURVE",
"220 165 CURVE SMOOTH"
);
}
);
};
components = (
{
name = nuktadeva;
transform = "{1, 0, 0, 1, 467, 307}";
}
);
layerId = "CFA4B904-E3F1-48B6-A7F6-47DC1FF2A3E1";
name = Bold;
paths = (
{
closed = 1;
nodes = (
"299 154 OFFCURVE",
"311 133 OFFCURVE",
"311 116 CURVE SMOOTH",
"311 93 OFFCURVE",
"287 75 OFFCURVE",
"243 75 CURVE SMOOTH",
"179 75 OFFCURVE",
"137 94 OFFCURVE",
"89 141 CURVE",
"37 85 LINE",
"87 36 OFFCURVE",
"148 -3 OFFCURVE",
"236 -3 CURVE SMOOTH",
"332 -3 OFFCURVE",
"392 46 OFFCURVE",
"392 120 CURVE SMOOTH",
"392 189 OFFCURVE",
"339 230 OFFCURVE",
"246 225 CURVE SMOOTH",
"195 222 OFFCURVE",
"159 226 OFFCURVE",
"159 254 CURVE SMOOTH",
"159 272 OFFCURVE",
"175 279 OFFCURVE",
"225 279 CURVE SMOOTH",
"287 279 OFFCURVE",
"314 272 OFFCURVE",
"349 268 CURVE",
"359 275 LINE",
"359 456 LINE",
"283 456 LINE",
"283 348 LINE",
"262 350 OFFCURVE",
"250 351 OFFCURVE",
"217 351 CURVE SMOOTH",
"140 351 OFFCURVE",
"79 322 OFFCURVE",
"79 250 CURVE SMOOTH",
"79 172 OFFCURVE",
"151 144 OFFCURVE",
"239 150 CURVE SMOOTH"
);
},
{
closed = 1;
nodes = (
"-28 466 LINE",
"-28 396 LINE",
"529 396 LINE",
"529 466 LINE"
);
}
);
width = 505;
}
);
unicode = 0919;
},
{
glyphname = cadeva;
lastChange = "2014-09-16 06:13:03 +0530";
layers = (
{
anchors = (
{
name = bottom;
position = "{386, 5}";
},
{
name = top;
position = "{386, 447}";
}
);
background = {
paths = (
{
closed = 1;
nodes = (
"128 271 OFFCURVE",
"96 255 OFFCURVE",
"96 197 CURVE SMOOTH",
"96 109 OFFCURVE",
"166 58 OFFCURVE",
"251 58 CURVE SMOOTH",
"347 58 OFFCURVE",
"382 101 OFFCURVE",
"382 102 CURVE",
"382 201 LINE",
"382 201 OFFCURVE",
"349 139 OFFCURVE",
"259 139 CURVE SMOOTH",
"221 139 OFFCURVE",
"184 154 OFFCURVE",
"184 197 CURVE SMOOTH",
"184 230 OFFCURVE",
"198 261 OFFCURVE",
"265 269 CURVE",
"156 279 LINE"
);
},
{
closed = 1;
nodes = (
"-9 466 LINE",
"-9 396 LINE",
"512 396 LINE",
"512 466 LINE"
);
},
{
closed = 1;
nodes = (
"345 0 LINE",
"430 0 LINE",
"430 466 LINE",
"345 466 LINE"
);
},
{
closed = 1;
nodes = (
"25 306 LINE",
"25 234 LINE",
"282 234 LINE",
"282 306 LINE"
);
}
);
};
layerId = "CFA4B904-E3F1-48B6-A7F6-47DC1FF2A3E1";
name = Bold;
paths = (
{
closed = 1;
nodes = (
"131 271 OFFCURVE",
"99 255 OFFCURVE",
"99 197 CURVE SMOOTH",
"99 112 OFFCURVE",
"166 61 OFFCURVE",
"251 61 CURVE SMOOTH",
"347 61 OFFCURVE",
"382 104 OFFCURVE",
"382 105 CURVE",
"382 201 LINE",
"382 201 OFFCURVE",
"349 139 OFFCURVE",
"259 139 CURVE SMOOTH",
"221 139 OFFCURVE",
"184 154 OFFCURVE",
"184 197 CURVE SMOOTH",
"184 230 OFFCURVE",
"198 261 OFFCURVE",
"265 269 CURVE",
"159 279 LINE"
);
},
{
closed = 1;
nodes = (
"-24 466 LINE",
"-24 396 LINE",
"522 396 LINE",
"522 466 LINE"
);
},
{
closed = 1;
nodes = (
"345 0 LINE",
"430 0 LINE",
"430 466 LINE",
"345 466 LINE"
);
},
{
closed = 1;
nodes = (
"25 306 LINE",
"25 234 LINE",
"282 234 LINE",
"282 306 LINE"
);
}
);
width = 498;
}
);
unicode = 091A;
},
{
glyphname = chadeva;
lastChange = "2014-09-16 06:13:03 +0530";
layers = (
{
anchors = (
{
name = bottom;
position = "{274, -19}";
},
{
name = top;
position = "{426, 447}";
}
);
background = {
paths = (
{
closed = 1;
nodes = (
"578 408 LINE",
"578 456 LINE",
"-4 456 LINE",
"-4 408 LINE"
);
},
{
closed = 1;
nodes = (
"470 121 OFFCURVE",
"395 58 OFFCURVE",
"274 58 CURVE SMOOTH",
"206 58 OFFCURVE",
"138 85 OFFCURVE",
"138 154 CURVE SMOOTH",
"138 187 OFFCURVE",
"163 230 OFFCURVE",
"261 226 CURVE",
"266 226 LINE",
"266 275 LINE",
"257 275 LINE SMOOTH",
"153 274 OFFCURVE",
"146 323 OFFCURVE",
"146 344 CURVE SMOOTH",
"146 378 OFFCURVE",
"163 400 OFFCURVE",
"209 408 CURVE",
"257 456 LINE",
"222 456 OFFCURVE",
"168 444 OFFCURVE",
"137 424 CURVE SMOOTH",
"104 403 OFFCURVE",
"92 373 OFFCURVE",
"92 344 CURVE SMOOTH",
"92 305 OFFCURVE",
"110 275 OFFCURVE",
"155 252 CURVE",
"114 232 OFFCURVE",
"84 204 OFFCURVE",
"84 153 CURVE SMOOTH",
"84 64 OFFCURVE",
"161 6 OFFCURVE",
"274 6 CURVE SMOOTH",
"378 6 OFFCURVE",
"521 57 OFFCURVE",
"521 220 CURVE SMOOTH",
"521 298 OFFCURVE",
"477 349 OFFCURVE",
"420 349 CURVE SMOOTH",
"363 349 OFFCURVE",
"326 298 OFFCURVE",
"326 228 CURVE SMOOTH",
"326 137 OFFCURVE",
"378 84 OFFCURVE",
"380 69 CURVE",
"380 69 OFFCURVE",
"440 94 OFFCURVE",
"430 94 CURVE SMOOTH",
"430 94 OFFCURVE",
"377 140 OFFCURVE",
"377 228 CURVE SMOOTH",
"377 266 OFFCURVE",
"394 294 OFFCURVE",
"420 294 CURVE SMOOTH",
"442 294 OFFCURVE",
"470 273 OFFCURVE",
"470 216 CURVE SMOOTH"
);
},
{
closed = 1;
nodes = (
"401 333 LINE",
"451 333 LINE",
"451 456 LINE",
"401 456 LINE"
);
}
);
};
layerId = "CFA4B904-E3F1-48B6-A7F6-47DC1FF2A3E1";
name = Bold;
paths = (
{
closed = 1;
nodes = (
"598 396 LINE",
"598 466 LINE",
"-24 466 LINE",
"-24 396 LINE"
);
},
{
closed = 1;
nodes = (
"463 121 OFFCURVE",
"395 64 OFFCURVE",
"274 64 CURVE SMOOTH",
"199 64 OFFCURVE",
"148 99 OFFCURVE",
"148 147 CURVE SMOOTH",
"148 191 OFFCURVE",
"183 223 OFFCURVE",
"261 219 CURVE",
"266 219 LINE",
"266 282 LINE",
"257 282 LINE SMOOTH",
"163 282 OFFCURVE",
"156 323 OFFCURVE",
"156 344 CURVE SMOOTH",
"156 378 OFFCURVE",
"173 400 OFFCURVE",
"219 408 CURVE",
"257 456 LINE",
"222 456 OFFCURVE",
"148 444 OFFCURVE",
"117 424 CURVE SMOOTH",
"84 403 OFFCURVE",
"72 373 OFFCURVE",
"72 344 CURVE SMOOTH",
"72 295 OFFCURVE",
"112 260 OFFCURVE",
"137 252 CURVE",
"113 242 OFFCURVE",
"64 204 OFFCURVE",
"64 138 CURVE SMOOTH",
"64 44 OFFCURVE",
"161 -14 OFFCURVE",
"274 -14 CURVE SMOOTH",
"408 -14 OFFCURVE",
"541 57 OFFCURVE",
"541 199 CURVE SMOOTH",
"541 298 OFFCURVE",
"483 349 OFFCURVE",
"420 349 CURVE SMOOTH",
"363 349 OFFCURVE",
"306 298 OFFCURVE",
"306 211 CURVE SMOOTH",
"306 137 OFFCURVE",
"345 78 OFFCURVE",
"354 63 CURVE",
"354 63 OFFCURVE",
"430 94 OFFCURVE",
"430 94 CURVE SMOOTH",
"430 94 OFFCURVE",
"384 140 OFFCURVE",
"384 208 CURVE SMOOTH",
"384 246 OFFCURVE",
"396 274 OFFCURVE",
"422 274 CURVE SMOOTH",
"444 274 OFFCURVE",
"463 253 OFFCURVE",
"463 207 CURVE SMOOTH"
);
},
{
closed = 1;
nodes = (
"386 333 LINE",
"466 333 LINE",
"466 466 LINE",
"386 466 LINE"
);
}
);
width = 574;
}
);
unicode = 091B;
},
{
glyphname = jadeva;
lastChange = "2014-09-16 06:13:03 +0530";
layers = (
{
anchors = (
{
name = bottom;
position = "{452, 5}";
},
{
name = top;
position = "{452, 447}";
}
);
background = {
paths = (
{
closed = 1;
nodes = (
"-14 466 LINE",
"-14 396 LINE",
"578 396 LINE",
"578 466 LINE"
);
},
{
closed = 1;
nodes = (
"410 0 LINE",
"495 0 LINE",
"495 466 LINE",
"410 466 LINE"
);
},
{
closed = 1;
nodes = (
"241 294 LINE",
"237 223 LINE",
"445 223 LINE",
"445 294 LINE"
);
},
{
closed = 1;
nodes = (
"355 186 OFFCURVE",
"347 231 OFFCURVE",
"299 265 CURVE SMOOTH",
"288 273 OFFCURVE",
"264 286 OFFCURVE",
"251 294 CURVE",
"208 294 LINE",
"208 226 LINE",
"259 226 OFFCURVE",
"272 197 OFFCURVE",
"272 164 CURVE SMOOTH",
"272 130 OFFCURVE",
"250 107 OFFCURVE",
"214 107 CURVE SMOOTH",
"162 107 OFFCURVE",
"128 153 OFFCURVE",
"93 254 CURVE",
"20 225 LINE",
"57 104 OFFCURVE",
"115 25 OFFCURVE",
"214 25 CURVE SMOOTH",
"291 25 OFFCURVE",
"355 67 OFFCURVE",
"355 156 CURVE SMOOTH"
);
}
);
};
guideLines = (
{
angle = 90;
position = "{452, -65}";
}
);
layerId = "CFA4B904-E3F1-48B6-A7F6-47DC1FF2A3E1";
name = Bold;
paths = (
{
closed = 1;
nodes = (
"-24 466 LINE",
"-24 396 LINE",
"597 396 LINE",
"597 466 LINE"
);
},
{
closed = 1;
nodes = (
"420 0 LINE",
"505 0 LINE",
"505 466 LINE",
"420 466 LINE"
);
},
{
closed = 1;
nodes = (
"241 292 LINE",
"237 223 LINE",
"455 223 LINE",
"455 292 LINE"
);
},
{
closed = 1;
nodes = (
"351 186 OFFCURVE",
"343 231 OFFCURVE",
"295 265 CURVE SMOOTH",
"284 273 OFFCURVE",
"264 284 OFFCURVE",
"251 292 CURVE",
"208 292 LINE",
"208 226 LINE",
"259 226 OFFCURVE",
"272 197 OFFCURVE",
"272 164 CURVE SMOOTH",
"272 130 OFFCURVE",
"250 107 OFFCURVE",
"214 107 CURVE SMOOTH",
"162 107 OFFCURVE",
"128 153 OFFCURVE",
"93 254 CURVE",
"24 226 LINE",
"61 105 OFFCURVE",
"119 29 OFFCURVE",
"214 29 CURVE SMOOTH",
"291 29 OFFCURVE",
"351 76 OFFCURVE",
"351 156 CURVE SMOOTH"
);
}
);
width = 573;
}
);
unicode = 091C;
},
{
glyphname = jhadeva;
lastChange = "2014-09-16 06:13:03 +0530";
layers = (
{
anchors = (
{
name = bottom;
position = "{472, 5}";
},
{
name = top;
position = "{472, 447}";
}
);
background = {
paths = (
{
closed = 1;
nodes = (
"-11 456 LINE",
"-11 408 LINE",
"598 408 LINE",
"598 456 LINE"
);
},
{
closed = 1;
nodes = (
"487 237 OFFCURVE",
"464 184 OFFCURVE",
"381 184 CURVE SMOOTH",
"356 184 OFFCURVE",
"301 203 OFFCURVE",
"266 211 CURVE",
"254 168 LINE",
"290 159 OFFCURVE",
"342 136 OFFCURVE",
"392 136 CURVE SMOOTH",
"456 136 OFFCURVE",
"487 186 OFFCURVE",
"487 186 CURVE",
"487 237 LINE"
);
},
{
closed = 1;
nodes = (
"444 0 LINE",
"500 0 LINE",
"500 456 LINE",
"444 456 LINE"
);
},
{
closed = 1;
nodes = (
"114 53 LINE",
"114 53 OFFCURVE",
"209 -97 OFFCURVE",
"209 -97 CURVE SMOOTH",
"209 -97 OFFCURVE",
"257 -75 OFFCURVE",
"257 -75 CURVE",
"165 59 LINE"
);
},
{
closed = 1;
nodes = (
"62 189 OFFCURVE",
"111 163 OFFCURVE",
"160 163 CURVE SMOOTH",
"187 163 OFFCURVE",
"213 169 OFFCURVE",
"233 169 CURVE SMOOTH",
"275 169 OFFCURVE",
"292 146 OFFCURVE",
"292 116 CURVE SMOOTH",
"292 77 OFFCURVE",
"248 59 OFFCURVE",
"213 59 CURVE SMOOTH",
"193 59 OFFCURVE",
"178 59 OFFCURVE",
"161 65 CURVE",
"108 134 LINE",
"81 136 OFFCURVE",
"56 121 OFFCURVE",
"56 96 CURVE SMOOTH",
"56 36 OFFCURVE",
"150 9 OFFCURVE",
"207 9 CURVE SMOOTH",
"287 9 OFFCURVE",
"346 50 OFFCURVE",
"346 115 CURVE SMOOTH",
"346 185 OFFCURVE",
"302 222 OFFCURVE",
"235 222 CURVE SMOOTH",
"214 222 OFFCURVE",
"191 216 OFFCURVE",
"170 216 CURVE SMOOTH",
"137 216 OFFCURVE",
"115 223 OFFCURVE",
"115 256 CURVE SMOOTH",
"115 284 OFFCURVE",
"139 294 OFFCURVE",
"189 294 CURVE SMOOTH",
"251 294 OFFCURVE",
"268 289 OFFCURVE",
"303 285 CURVE",
"313 292 LINE",
"313 456 LINE",
"257 456 LINE",
"257 341 LINE",
"231 344 OFFCURVE",
"223 345 OFFCURVE",
"190 345 CURVE SMOOTH",
"117 345 OFFCURVE",
"62 323 OFFCURVE",
"62 260 CURVE SMOOTH"
);
}
);
};
guideLines = (
{
angle = 90;
position = "{472, 364}";
}
);
layerId = "CFA4B904-E3F1-48B6-A7F6-47DC1FF2A3E1";
name = Bold;
paths = (
{
closed = 1;
nodes = (
"265 152 OFFCURVE",
"277 133 OFFCURVE",
"277 116 CURVE SMOOTH",
"277 93 OFFCURVE",
"255 70 OFFCURVE",
"191 70 CURVE SMOOTH",
"171 70 OFFCURVE",
"163 72 OFFCURVE",
"151 76 CURVE",
"102 138 LINE",
"76 138 OFFCURVE",
"40 128 OFFCURVE",
"40 86 CURVE",
"40 39 OFFCURVE",
"114 -3 OFFCURVE",
"202 -3 CURVE SMOOTH",
"298 -3 OFFCURVE",
"358 46 OFFCURVE",
"358 120 CURVE SMOOTH",
"358 189 OFFCURVE",
"304 227 OFFCURVE",
"217 223 CURVE SMOOTH",
"166 221 OFFCURVE",
"130 226 OFFCURVE",
"130 254 CURVE SMOOTH",
"130 272 OFFCURVE",
"146 279 OFFCURVE",
"196 279 CURVE SMOOTH",
"261 279 OFFCURVE",
"283 272 OFFCURVE",
"318 268 CURVE",
"328 275 LINE",
"328 456 LINE",
"252 456 LINE",
"252 348 LINE",
"231 350 OFFCURVE",
"221 351 OFFCURVE",
"188 351 CURVE SMOOTH",
"111 351 OFFCURVE",
"50 322 OFFCURVE",
"50 250 CURVE SMOOTH",
"50 172 OFFCURVE",
"117 142 OFFCURVE",
"205 148 CURVE SMOOTH"
);
},
{
closed = 1;
nodes = (
"-24 466 LINE",
"-24 396 LINE",
"414 396 LINE",
"414 466 LINE"
);
},
{
closed = 1;
nodes = (
"94 47 LINE",
"201 -119 LINE",
"271 -74 LINE",
"153 59 LINE"
);
},
{
closed = 1;
nodes = (
"369 466 LINE",
"369 396 LINE",
"615 396 LINE",
"615 466 LINE"
);
},
{
closed = 1;
nodes = (
"438 0 LINE",
"523 0 LINE",
"523 466 LINE",
"438 466 LINE"
);
},
{
closed = 1;
nodes = (
"487 236 OFFCURVE",
"454 193 OFFCURVE",
"381 193 CURVE SMOOTH",
"356 193 OFFCURVE",
"301 212 OFFCURVE",
"266 220 CURVE",
"254 155 LINE",
"290 146 OFFCURVE",
"342 123 OFFCURVE",
"392 123 CURVE SMOOTH",
"446 123 OFFCURVE",
"487 159 OFFCURVE",
"487 159 CURVE",
"487 236 LINE"
);
}
);
width = 591;
}
);
unicode = 091D;
},
{
glyphname = nyadeva;
lastChange = "2014-09-16 06:13:03 +0530";
layers = (
{
anchors = (
{
name = bottom;
position = "{500, 5}";
},
{
name = top;
position = "{500, 447}";
}
);
background = {
paths = (
{
closed = 1;
nodes = (
"267 237 OFFCURVE",
"283 216 OFFCURVE",
"283 190 CURVE SMOOTH",
"283 154 OFFCURVE",
"264 136 OFFCURVE",
"230 136 CURVE SMOOTH",
"168 136 OFFCURVE",
"138 178 OFFCURVE",
"98 279 CURVE",
"21 248 LINE",
"73 106 OFFCURVE",
"133 48 OFFCURVE",
"232 48 CURVE SMOOTH",
"311 48 OFFCURVE",
"359 98 OFFCURVE",
"369 170 CURVE SMOOTH",
"370 174 OFFCURVE",
"372 177 OFFCURVE",
"372 181 CURVE SMOOTH",
"372 271 OFFCURVE",
"315 321 OFFCURVE",
"239 321 CURVE SMOOTH",
"202 321 OFFCURVE",
"175 310 OFFCURVE",
"152 295 CURVE",
"152 295 OFFCURVE",
"188 220 OFFCURVE",
"188 220 CURVE SMOOTH",
"188 220 OFFCURVE",
"211 237 OFFCURVE",
"235 237 CURVE SMOOTH"
);
},
{
closed = 1;
nodes = (
"465 228 OFFCURVE",
"430 210 OFFCURVE",
"400 210 CURVE SMOOTH",
"375 210 OFFCURVE",
"358 217 OFFCURVE",
"332 230 CURVE",
"328 152 LINE",
"354 144 OFFCURVE",
"373 138 OFFCURVE",
"400 138 CURVE SMOOTH",
"423 138 OFFCURVE",
"465 151 OFFCURVE",
"481 164 CURVE",
"481 241 LINE"
);
},
{
closed = 1;
nodes = (
"-4 466 LINE",
"-4 396 LINE",
"602 396 LINE",
"602 466 LINE"
);
},
{
closed = 1;
nodes = (
"430 0 LINE",
"515 0 LINE",
"515 466 LINE",
"430 466 LINE"
);
}
);
};
guideLines = (
{
angle = 90;
position = "{450, 366}";
}
);
layerId = "CFA4B904-E3F1-48B6-A7F6-47DC1FF2A3E1";
name = Bold;
paths = (
{
closed = 1;
nodes = (
"266 241 OFFCURVE",
"287 222 OFFCURVE",
"287 190 CURVE SMOOTH",
"287 154 OFFCURVE",
"268 131 OFFCURVE",
"230 131 CURVE SMOOTH",
"168 131 OFFCURVE",
"138 178 OFFCURVE",
"98 279 CURVE",
"25 249 LINE",
"77 107 OFFCURVE",
"137 48 OFFCURVE",
"229 48 CURVE SMOOTH",
"304 48 OFFCURVE",
"359 98 OFFCURVE",
"369 170 CURVE SMOOTH",
"370 174 OFFCURVE",
"372 177 OFFCURVE",
"372 181 CURVE SMOOTH",
"372 271 OFFCURVE",
"315 321 OFFCURVE",
"239 321 CURVE SMOOTH",
"202 321 OFFCURVE",
"175 310 OFFCURVE",
"152 295 CURVE",
"152 295 OFFCURVE",
"187 224 OFFCURVE",
"187 224 CURVE SMOOTH",
"187 224 OFFCURVE",
"210 241 OFFCURVE",
"234 241 CURVE SMOOTH"
);
},
{
closed = 1;
nodes = (
"465 228 OFFCURVE",
"430 210 OFFCURVE",
"400 210 CURVE SMOOTH",
"375 210 OFFCURVE",
"358 217 OFFCURVE",
"332 230 CURVE",
"328 152 LINE",
"354 144 OFFCURVE",
"373 138 OFFCURVE",
"400 138 CURVE SMOOTH",
"423 138 OFFCURVE",
"465 151 OFFCURVE",
"481 164 CURVE",
"481 241 LINE"
);
},
{
closed = 1;
nodes = (
"-24 466 LINE",
"-24 396 LINE",
"607 396 LINE",
"607 466 LINE"
);
},
{
closed = 1;
nodes = (
"430 0 LINE",
"515 0 LINE",
"515 466 LINE",
"430 466 LINE"
);
}
);
width = 583;
}
);
unicode = 091E;
},
{
glyphname = ttadeva;
lastChange = "2014-09-16 06:13:03 +0530";
layers = (
{
anchors = (
{
name = bottom;
position = "{236, -25}";
},
{
name = top;
position = "{313, 447}";
}
);
background = {
paths = (
{
closed = 1;
nodes = (
"319 102 OFFCURVE",
"279 81 OFFCURVE",
"229 81 CURVE SMOOTH",
"169 81 OFFCURVE",
"133 114 OFFCURVE",
"133 163 CURVE SMOOTH",
"133 210 OFFCURVE",
"165 242 OFFCURVE",
"233 242 CURVE SMOOTH",
"270 242 OFFCURVE",
"295 237 OFFCURVE",
"331 233 CURVE",
"340 240 LINE",
"340 456 LINE",
"264 456 LINE",
"264 322 LINE",
"264 322 OFFCURVE",
"239 322 OFFCURVE",
"225 322 CURVE SMOOTH",
"110 322 OFFCURVE",
"49 259 OFFCURVE",
"49 167 CURVE SMOOTH",
"49 65 OFFCURVE",
"123 -2 OFFCURVE",
"228 -2 CURVE SMOOTH",
"301 -2 OFFCURVE",
"356 27 OFFCURVE",
"380 44 CURVE",
"345 118 LINE"
);
},
{
closed = 1;
nodes = (
"2 466 LINE",
"2 396 LINE",
"434 396 LINE",
"434 466 LINE"
);
}
);
};
layerId = "CFA4B904-E3F1-48B6-A7F6-47DC1FF2A3E1";
name = Bold;
paths = (
{
closed = 1;
nodes = (
"319 99 OFFCURVE",
"279 78 OFFCURVE",
"229 78 CURVE SMOOTH",
"169 78 OFFCURVE",
"131 111 OFFCURVE",
"131 163 CURVE SMOOTH",
"131 213 OFFCURVE",
"165 244 OFFCURVE",
"233 244 CURVE SMOOTH",
"270 244 OFFCURVE",
"295 239 OFFCURVE",
"331 235 CURVE",
"340 242 LINE",
"340 456 LINE",
"264 456 LINE",
"264 322 LINE",
"264 322 OFFCURVE",
"239 322 OFFCURVE",
"225 322 CURVE SMOOTH",
"110 322 OFFCURVE",
"49 259 OFFCURVE",
"49 167 CURVE SMOOTH",
"49 65 OFFCURVE",
"123 -2 OFFCURVE",
"228 -2 CURVE SMOOTH",
"301 -2 OFFCURVE",
"356 27 OFFCURVE",
"380 44 CURVE",
"345 115 LINE"
);
},
{
closed = 1;
nodes = (
"-24 466 LINE",
"-24 396 LINE",
"434 396 LINE",
"434 466 LINE"
);
}
);
width = 410;
}
);
unicode = 091F;
},
{
glyphname = tthadeva;
lastChange = "2014-09-16 06:13:03 +0530";
layers = (
{
anchors = (
{
name = bottom;
position = "{211, -25}";
},
{
name = top;
position = "{277, 447}";
}
);
background = {
paths = (
{
closed = 1;
nodes = (
"-24 466 LINE",
"-24 396 LINE",
"452 396 LINE",
"452 466 LINE"
);
},
{
closed = 1;
nodes = (
"401 238 OFFCURVE",
"333 297 OFFCURVE",
"283 326 CURVE",
"220 262 LINE",
"256 256 OFFCURVE",
"316 215 OFFCURVE",
"316 154 CURVE SMOOTH",
"316 107 OFFCURVE",
"278 77 OFFCURVE",
"203 77 CURVE SMOOTH",
"138 77 OFFCURVE",
"105 119 OFFCURVE",
"105 169 CURVE SMOOTH",
"105 215 OFFCURVE",
"143 246 OFFCURVE",
"208 246 CURVE SMOOTH",
"306 246 LINE",
"315 244 LINE",
"315 466 LINE",
"236 466 LINE",
"236 320 LINE",
"200 320 LINE SMOOTH",
"91 320 OFFCURVE",
"23 257 OFFCURVE",
"23 167 CURVE SMOOTH",
"23 70 OFFCURVE",
"98 0 OFFCURVE",
"205 0 CURVE SMOOTH",
"340 0 OFFCURVE",
"401 80 OFFCURVE",
"401 156 CURVE SMOOTH"
);
}
);
};
layerId = "CFA4B904-E3F1-48B6-A7F6-47DC1FF2A3E1";
name = Bold;
paths = (
{
closed = 1;
nodes = (
"-24 466 LINE",
"-24 396 LINE",
"488 396 LINE",
"488 466 LINE"
);
},
{
closed = 1;
nodes = (
"422 238 OFFCURVE",
"354 297 OFFCURVE",
"304 326 CURVE",
"243 262 LINE",
"279 256 OFFCURVE",
"339 218 OFFCURVE",
"339 154 CURVE SMOOTH",
"339 105 OFFCURVE",
"299 75 OFFCURVE",
"224 75 CURVE SMOOTH",
"159 75 OFFCURVE",
"124 117 OFFCURVE",
"124 169 CURVE SMOOTH",
"124 217 OFFCURVE",
"164 248 OFFCURVE",
"229 248 CURVE SMOOTH",
"325 248 LINE",
"334 246 LINE",
"334 466 LINE",
"257 466 LINE",
"257 320 LINE",
"221 320 LINE SMOOTH",
"112 320 OFFCURVE",
"44 257 OFFCURVE",
"44 167 CURVE SMOOTH",
"44 70 OFFCURVE",
"119 0 OFFCURVE",
"226 0 CURVE SMOOTH",
"361 0 OFFCURVE",
"422 80 OFFCURVE",
"422 156 CURVE SMOOTH"
);
}
);
width = 464;
}
);
unicode = 0920;
},
{
glyphname = ddadeva;
lastChange = "2014-09-16 06:13:03 +0530";
layers = (
{
anchors = (
{
name = bottom;
position = "{244, -25}";
},
{
name = top;
position = "{321, 447}";
}
);
background = {
paths = (
{
closed = 1;
nodes = (
"-9 456 LINE",
"-9 408 LINE",
"448 408 LINE",
"448 456 LINE"
);
},
{
closed = 1;
nodes = (
"299 171 OFFCURVE",
"328 153 OFFCURVE",
"328 116 CURVE SMOOTH",
"328 73 OFFCURVE",
"287 52 OFFCURVE",
"243 52 CURVE SMOOTH",
"184 52 OFFCURVE",
"135 81 OFFCURVE",
"87 128 CURVE",
"53 91 LINE",
"105 38 OFFCURVE",
"168 0 OFFCURVE",
"244 0 CURVE SMOOTH",
"325 0 OFFCURVE",
"382 46 OFFCURVE",
"382 120 CURVE SMOOTH",
"382 181 OFFCURVE",
"329 220 OFFCURVE",
"257 216 CURVE SMOOTH",
"205 213 OFFCURVE",
"152 212 OFFCURVE",
"152 256 CURVE SMOOTH",
"152 284 OFFCURVE",
"175 294 OFFCURVE",
"225 294 CURVE SMOOTH",
"287 294 OFFCURVE",
"304 289 OFFCURVE",
"339 285 CURVE",
"349 292 LINE",
"349 456 LINE",
"293 456 LINE",
"293 343 LINE",
"272 345 OFFCURVE",
"260 346 OFFCURVE",
"227 346 CURVE SMOOTH",
"150 346 OFFCURVE",
"99 322 OFFCURVE",
"99 259 CURVE SMOOTH",
"99 162 OFFCURVE",
"201 161 OFFCURVE",
"239 165 CURVE SMOOTH"
);
}
);
};
layerId = "CFA4B904-E3F1-48B6-A7F6-47DC1FF2A3E1";
name = Bold;
paths = (
{
closed = 1;
nodes = (
"299 154 OFFCURVE",
"311 133 OFFCURVE",
"311 116 CURVE SMOOTH",
"311 93 OFFCURVE",
"287 75 OFFCURVE",
"243 75 CURVE SMOOTH",
"179 75 OFFCURVE",
"137 94 OFFCURVE",
"89 141 CURVE",
"37 85 LINE",
"87 36 OFFCURVE",
"148 -3 OFFCURVE",
"236 -3 CURVE SMOOTH",
"332 -3 OFFCURVE",
"392 46 OFFCURVE",
"392 120 CURVE SMOOTH",
"392 189 OFFCURVE",
"339 230 OFFCURVE",
"246 225 CURVE SMOOTH",
"195 222 OFFCURVE",
"159 226 OFFCURVE",
"159 254 CURVE SMOOTH",
"159 272 OFFCURVE",
"175 279 OFFCURVE",
"225 279 CURVE SMOOTH",
"287 279 OFFCURVE",
"314 272 OFFCURVE",
"349 268 CURVE",
"359 275 LINE",
"359 456 LINE",
"283 456 LINE",
"283 348 LINE",
"262 350 OFFCURVE",
"250 351 OFFCURVE",
"217 351 CURVE SMOOTH",
"140 351 OFFCURVE",
"79 322 OFFCURVE",
"79 250 CURVE SMOOTH",
"79 172 OFFCURVE",
"151 144 OFFCURVE",
"239 150 CURVE SMOOTH"
);
},
{
closed = 1;
nodes = (
"-24 466 LINE",
"-24 396 LINE",
"463 396 LINE",
"463 466 LINE"
);
}
);
width = 439;
}
);
unicode = 0921;
},
{
glyphname = ddhadeva;
lastChange = "2014-09-16 06:13:03 +0530";
layers = (
{
anchors = (
{
name = bottom;
position = "{215, -30}";
},
{
name = top;
position = "{287, 447}";
}
);
background = {
paths = (
{
closed = 1;
nodes = (
"-24 466 LINE",
"-24 396 LINE",
"430 396 LINE",
"430 466 LINE"
);
},
{
closed = 1;
nodes = (
"369 165 OFFCURVE",
"331 205 OFFCURVE",
"269 205 CURVE SMOOTH",
"220 205 OFFCURVE",
"173 172 OFFCURVE",
"173 111 CURVE SMOOTH",
"173 57 OFFCURVE",
"196 31 OFFCURVE",
"206 18 CURVE",
"206 18 OFFCURVE",
"299 31 OFFCURVE",
"299 31 CURVE SMOOTH",
"299 31 OFFCURVE",
"244 50 OFFCURVE",
"244 96 CURVE SMOOTH",
"244 116 OFFCURVE",
"249 133 OFFCURVE",
"269 133 CURVE SMOOTH",
"283 133 OFFCURVE",
"294 124 OFFCURVE",
"294 106 CURVE SMOOTH",
"294 87 OFFCURVE",
"274 70 OFFCURVE",
"219 69 CURVE SMOOTH",
"149 67 OFFCURVE",
"118 116 OFFCURVE",
"118 161 CURVE SMOOTH",
"118 211 OFFCURVE",
"152 247 OFFCURVE",
"208 247 CURVE SMOOTH",
"245 247 OFFCURVE",
"280 242 OFFCURVE",
"316 238 CURVE",
"325 245 LINE",
"325 466 LINE",
"249 466 LINE",
"249 326 LINE",
"223 328 OFFCURVE",
"217 328 OFFCURVE",
"203 328 CURVE SMOOTH",
"94 328 OFFCURVE",
"34 254 OFFCURVE",
"34 167 CURVE SMOOTH",
"34 67 OFFCURVE",
"110 -5 OFFCURVE",
"215 -5 CURVE SMOOTH",
"286 -5 OFFCURVE",
"369 25 OFFCURVE",
"369 114 CURVE SMOOTH"
);
}
);
};
layerId = "CFA4B904-E3F1-48B6-A7F6-47DC1FF2A3E1";
name = Bold;
paths = (
{
closed = 1;
nodes = (
"-24 466 LINE",
"-24 396 LINE",
"455 396 LINE",
"455 466 LINE"
);
},
{
closed = 1;
nodes = (
"384 165 OFFCURVE",
"346 205 OFFCURVE",
"284 205 CURVE SMOOTH",
"235 205 OFFCURVE",
"188 172 OFFCURVE",
"188 111 CURVE SMOOTH",
"188 57 OFFCURVE",
"211 31 OFFCURVE",
"221 18 CURVE",
"221 18 OFFCURVE",
"314 31 OFFCURVE",
"314 31 CURVE SMOOTH",
"314 31 OFFCURVE",
"259 50 OFFCURVE",
"259 96 CURVE SMOOTH",
"259 116 OFFCURVE",
"264 133 OFFCURVE",
"284 133 CURVE SMOOTH",
"298 133 OFFCURVE",
"309 124 OFFCURVE",
"309 106 CURVE SMOOTH",
"309 87 OFFCURVE",
"289 67 OFFCURVE",
"234 66 CURVE SMOOTH",
"164 64 OFFCURVE",
"130 112 OFFCURVE",
"130 161 CURVE SMOOTH",
"130 215 OFFCURVE",
"167 250 OFFCURVE",
"223 250 CURVE SMOOTH",
"260 250 OFFCURVE",
"295 245 OFFCURVE",
"331 241 CURVE",
"340 248 LINE",
"340 466 LINE",
"264 466 LINE",
"264 326 LINE",
"238 328 OFFCURVE",
"232 328 OFFCURVE",
"218 328 CURVE SMOOTH",
"109 328 OFFCURVE",
"49 254 OFFCURVE",
"49 167 CURVE SMOOTH",
"49 67 OFFCURVE",
"125 -5 OFFCURVE",
"230 -5 CURVE SMOOTH",
"301 -5 OFFCURVE",
"384 25 OFFCURVE",
"384 114 CURVE SMOOTH"
);
}
);
width = 431;
}
);
unicode = 0922;
},
{
glyphname = nnadeva;
lastChange = "2014-09-16 06:13:03 +0530";
layers = (
{
anchors = (
{
name = bottom;
position = "{464, 5}";
},
{
name = top;
position = "{464, 447}";
}
);
background = {
paths = (
{
closed = 1;
nodes = (
"426 0 LINE",
"482 0 LINE",
"482 456 LINE",
"426 456 LINE"
);
},
{
closed = 1;
nodes = (
"-18 456 LINE",
"-18 408 LINE",
"580 408 LINE",
"580 456 LINE"
);
},
{
closed = 1;
nodes = (
"274 80 OFFCURVE",
"323 128 OFFCURVE",
"323 224 CURVE SMOOTH",
"323 436 LINE",
"267 436 LINE",
"267 228 LINE SMOOTH",
"267 164 OFFCURVE",
"247 133 OFFCURVE",
"196 133 CURVE SMOOTH",
"145 133 OFFCURVE",
"125 164 OFFCURVE",
"125 228 CURVE SMOOTH",
"125 436 LINE",
"69 436 LINE",
"69 224 LINE SMOOTH",
"69 127 OFFCURVE",
"114 80 OFFCURVE",
"197 80 CURVE SMOOTH"
);
},
{
closed = 1;
nodes = (
"349 216 OFFCURVE",
"295 169 OFFCURVE",
"211 169 CURVE SMOOTH",
"157 169 OFFCURVE",
"140 204 OFFCURVE",
"140 260 CURVE SMOOTH",
"140 456 LINE",
"55 456 LINE",
"55 234 LINE SMOOTH",
"55 154 OFFCURVE",
"113 93 OFFCURVE",
"213 93 CURVE SMOOTH",
"286 93 OFFCURVE",
"349 133 OFFCURVE",
"349 133 CURVE",
"349 216 LINE"
);
},
{
closed = 1;
nodes = (
"294 0 LINE",
"379 0 LINE",
"379 466 LINE",
"294 466 LINE"
);
},
{
closed = 1;
nodes = (
"-27 466 LINE",
"-27 396 LINE",
"477 396 LINE",
"477 466 LINE"
);
}
);
};
layerId = "CFA4B904-E3F1-48B6-A7F6-47DC1FF2A3E1";
name = Bold;
paths = (
{
closed = 1;
nodes = (
"429 0 LINE",
"514 0 LINE",
"514 466 LINE",
"429 466 LINE"
);
},
{
closed = 1;
nodes = (
"-24 466 LINE",
"-24 396 LINE",
"606 396 LINE",
"606 466 LINE"
);
},
{
closed = 1;
nodes = (
"291 78 OFFCURVE",
"343 131 OFFCURVE",
"343 227 CURVE SMOOTH",
"343 436 LINE",
"254 436 LINE",
"254 260 LINE SMOOTH",
"254 196 OFFCURVE",
"252 161 OFFCURVE",
"203 161 CURVE SMOOTH",
"154 161 OFFCURVE",
"152 196 OFFCURVE",
"152 260 CURVE SMOOTH",
"152 436 LINE",
"63 436 LINE",
"63 227 LINE SMOOTH",
"63 130 OFFCURVE",
"111 78 OFFCURVE",
"204 78 CURVE SMOOTH"
);
}
);
width = 582;
}
);
unicode = 0923;
},
{
glyphname = tadeva;
lastChange = "2014-09-16 06:13:03 +0530";
layers = (
{
anchors = (
{
name = bottom;
position = "{343, 5}";
},
{
name = top;
position = "{343, 447}";
}
);
background = {
paths = (
{
closed = 1;
nodes = (
"315 0 LINE",
"371 0 LINE",
"371 456 LINE",
"315 456 LINE"
);
},
{
closed = 1;
nodes = (
"-9 456 LINE",
"-9 408 LINE",
"469 408 LINE",
"469 456 LINE"
);
},
{
closed = 1;
nodes = (
"336 297 OFFCURVE",
"281 297 OFFCURVE",
"197 297 CURVE SMOOTH",
"104 297 OFFCURVE",
"59 260 OFFCURVE",
"59 177 CURVE SMOOTH",
"59 114 OFFCURVE",
"104 43 OFFCURVE",
"138 -15 CURVE",
"185 11 LINE",
"167 42 OFFCURVE",
"116 128 OFFCURVE",
"116 175 CURVE SMOOTH",
"116 227 OFFCURVE",
"143 241 OFFCURVE",
"203 241 CURVE",
"336 241 LINE",
"336 297 LINE"
);
}
);
};
guideLines = (
{
angle = 90;
position = "{343, 92}";
}
);
layerId = "CFA4B904-E3F1-48B6-A7F6-47DC1FF2A3E1";
name = Bold;
paths = (
{
closed = 1;
nodes = (
"331 305 OFFCURVE",
"278 305 OFFCURVE",
"194 305 CURVE SMOOTH",
"96 305 OFFCURVE",
"41 272 OFFCURVE",
"41 185 CURVE SMOOTH",
"41 118 OFFCURVE",
"84 43 OFFCURVE",
"120 -17 CURVE",
"190 24 LINE",
"162 73 OFFCURVE",
"128 132 OFFCURVE",
"128 177 CURVE SMOOTH",
"128 215 OFFCURVE",
"149 227 OFFCURVE",
"219 227 CURVE SMOOTH",
"331 227 LINE",
"331 305 LINE"
);
},
{
closed = 1;
nodes = (
"-24 466 LINE",
"-24 396 LINE",
"468 396 LINE",
"468 466 LINE"
);
},
{
closed = 1;
nodes = (
"291 0 LINE",
"376 0 LINE",
"376 466 LINE",
"291 466 LINE"
);
}
);
width = 444;
}
);
unicode = 0924;
},
{
glyphname = thadeva;
lastChange = "2014-09-16 06:13:03 +0530";
layers = (
{
anchors = (
{
name = bottom;
position = "{388, 5}";
},
{
name = top;
position = "{388, 447}";
}
);
background = {
paths = (
{
closed = 1;
nodes = (
"345 0 LINE",
"401 0 LINE",
"401 456 LINE",
"345 456 LINE"
);
},
{
closed = 1;
nodes = (
"275 456 LINE",
"275 408 LINE",
"499 408 LINE",
"499 456 LINE"
);
},
{
closed = 1;
nodes = (
"239 402 OFFCURVE",
"208 467 OFFCURVE",
"136 467 CURVE SMOOTH",
"91 467 OFFCURVE",
"41 436 OFFCURVE",
"41 379 CURVE SMOOTH",
"41 340 OFFCURVE",
"64 302 OFFCURVE",
"113 279 CURVE",
"142 321 LINE",
"118 335 OFFCURVE",
"95 351 OFFCURVE",
"95 379 CURVE SMOOTH",
"95 399 OFFCURVE",
"115 414 OFFCURVE",
"134 414 CURVE SMOOTH",
"169 414 OFFCURVE",
"187 380 OFFCURVE",
"187 342 CURVE SMOOTH",
"187 269 OFFCURVE",
"94 230 OFFCURVE",
"62 213 CURVE",
"51 182 LINE",
"78 136 OFFCURVE",
"139 84 OFFCURVE",
"230 84 CURVE SMOOTH",
"302 84 OFFCURVE",
"355 124 OFFCURVE",
"355 127 CURVE",
"355 197 LINE",
"329 160 OFFCURVE",
"276 138 OFFCURVE",
"225 138 CURVE SMOOTH",
"184 138 OFFCURVE",
"143 153 OFFCURVE",
"118 183 CURVE",
"156 211 OFFCURVE",
"239 253 OFFCURVE",
"239 342 CURVE SMOOTH"
);
}
);
};
layerId = "CFA4B904-E3F1-48B6-A7F6-47DC1FF2A3E1";
name = Bold;
paths = (
{
closed = 1;
nodes = (
"169 405 OFFCURVE",
"182 377 OFFCURVE",
"182 350 CURVE SMOOTH",
"182 280 OFFCURVE",
"110 247 OFFCURVE",
"54 217 CURVE",
"41 182 LINE",
"68 136 OFFCURVE",
"143 74 OFFCURVE",
"234 74 CURVE SMOOTH",
"306 74 OFFCURVE",
"359 116 OFFCURVE",
"359 116 CURVE",
"359 224 LINE",
"333 179 OFFCURVE",
"280 156 OFFCURVE",
"229 156 CURVE SMOOTH",
"197 156 OFFCURVE",
"171 167 OFFCURVE",
"152 181 CURVE",
"214 228 OFFCURVE",
"262 269 OFFCURVE",
"262 346 CURVE SMOOTH",
"262 410 OFFCURVE",
"222 478 OFFCURVE",
"143 478 CURVE",
"76 478 OFFCURVE",
"35 434 OFFCURVE",
"35 379 CURVE",
"35 327 OFFCURVE",
"68 301 OFFCURVE",
"99 284 CURVE",
"139 341 LINE",
"126 350 OFFCURVE",
"111 361 OFFCURVE",
"111 379 CURVE",
"111 392 OFFCURVE",
"118 405 OFFCURVE",
"141 405 CURVE"
);
},
{
closed = 1;
nodes = (
"300 466 LINE",
"300 396 LINE",
"523 396 LINE",
"523 466 LINE"
);
},
{
closed = 1;
nodes = (
"346 0 LINE",
"431 0 LINE",
"431 466 LINE",
"346 466 LINE"
);
}
);
width = 499;
}
);
unicode = 0925;
},
{
glyphname = dadeva;
lastChange = "2014-09-16 06:13:03 +0530";
layers = (
{
anchors = (
{
name = bottom;
position = "{221, -8}";
},
{
name = top;
position = "{289, 447}";
}
);
background = {
paths = (
{
closed = 1;
nodes = (
"282 104 LINE",
"257 91 OFFCURVE",
"235 78 OFFCURVE",
"201 78 CURVE SMOOTH",
"139 78 OFFCURVE",
"104 114 OFFCURVE",
"104 163 CURVE SMOOTH",
"104 210 OFFCURVE",
"139 242 OFFCURVE",
"207 242 CURVE SMOOTH",
"244 242 OFFCURVE",
"269 237 OFFCURVE",
"305 233 CURVE",
"314 240 LINE",
"314 456 LINE",
"238 456 LINE",
"238 322 LINE",
"238 322 OFFCURVE",
"213 322 OFFCURVE",
"199 322 CURVE SMOOTH",
"84 322 OFFCURVE",
"20 259 OFFCURVE",
"20 167 CURVE SMOOTH",
"20 65 OFFCURVE",
"97 -2 OFFCURVE",
"200 -2 CURVE SMOOTH",
"252 -2 OFFCURVE",
"287 17 OFFCURVE",
"316 32 CURVE"
);
},
{
closed = 1;
nodes = (
"-24 466 LINE",
"-24 396 LINE",
"438 396 LINE",
"438 466 LINE"
);
},
{
closed = 1;
nodes = (
"263 44 OFFCURVE",
"278 30 OFFCURVE",
"291 31 CURVE SMOOTH",
"311 32 OFFCURVE",
"351 58 OFFCURVE",
"351 100 CURVE SMOOTH",
"351 132 OFFCURVE",
"331 163 OFFCURVE",
"287 163 CURVE SMOOTH",
"242 163 OFFCURVE",
"216 130 OFFCURVE",
"216 130 CURVE",
"254 49 LINE"
);
},
{
closed = 1;
nodes = (
"250 56 LINE",
"250 56 OFFCURVE",
"324 -82 OFFCURVE",
"324 -82 CURVE SMOOTH",
"324 -82 OFFCURVE",
"395 -43 OFFCURVE",
"395 -43 CURVE",
"313 88 LINE"
);
}
);
};
layerId = "CFA4B904-E3F1-48B6-A7F6-47DC1FF2A3E1";
name = Bold;
paths = (
{
closed = 1;
nodes = (
"311 102 LINE",
"286 89 OFFCURVE",
"264 76 OFFCURVE",
"230 76 CURVE SMOOTH",
"168 76 OFFCURVE",
"131 111 OFFCURVE",
"131 163 CURVE SMOOTH",
"131 213 OFFCURVE",
"168 244 OFFCURVE",
"236 244 CURVE SMOOTH",
"273 244 OFFCURVE",
"298 239 OFFCURVE",
"334 235 CURVE",
"343 242 LINE",
"343 456 LINE",
"267 456 LINE",
"267 322 LINE",
"267 322 OFFCURVE",
"242 322 OFFCURVE",
"228 322 CURVE SMOOTH",
"113 322 OFFCURVE",
"49 259 OFFCURVE",
"49 167 CURVE SMOOTH",
"49 65 OFFCURVE",
"126 -2 OFFCURVE",
"229 -2 CURVE SMOOTH",
"281 -2 OFFCURVE",
"316 17 OFFCURVE",
"345 32 CURVE"
);
},
{
closed = 1;
nodes = (
"-24 466 LINE",
"-24 396 LINE",
"467 396 LINE",
"467 466 LINE"
);
},
{
closed = 1;
nodes = (
"292 44 OFFCURVE",
"307 30 OFFCURVE",
"320 31 CURVE SMOOTH",
"340 32 OFFCURVE",
"380 58 OFFCURVE",
"380 100 CURVE SMOOTH",
"380 132 OFFCURVE",
"360 163 OFFCURVE",
"316 163 CURVE SMOOTH",
"271 163 OFFCURVE",
"245 130 OFFCURVE",
"245 130 CURVE",
"283 49 LINE"
);
},
{
closed = 1;
nodes = (
"279 56 LINE",
"279 56 OFFCURVE",
"353 -82 OFFCURVE",
"353 -82 CURVE SMOOTH",
"353 -82 OFFCURVE",
"422 -44 OFFCURVE",
"422 -44 CURVE",
"340 87 LINE"
);
}
);
width = 443;
}
);
unicode = 0926;
},
{
glyphname = dhadeva;
lastChange = "2014-09-16 06:13:03 +0530";
layers = (
{
anchors = (
{
name = bottom;
position = "{392, 5}";
},
{
name = top;
position = "{392, 447}";
}
);
background = {
paths = (
{
closed = 1;
nodes = (
"78 486 OFFCURVE",
"37 426 OFFCURVE",
"37 362 CURVE",
"37 279 OFFCURVE",
"110 239 OFFCURVE",
"126 227 CURVE",
"233 267 LINE",
"233 267 OFFCURVE",
"124 291 OFFCURVE",
"124 371 CURVE",
"124 396 OFFCURVE",
"132 417 OFFCURVE",
"159 417 CURVE",
"172 417 OFFCURVE",
"181 409 OFFCURVE",
"181 397 CURVE",
"181 385 OFFCURVE",
"175 375 OFFCURVE",
"162 363 CURVE",
"217 316 LINE",
"238 338 OFFCURVE",
"258 361 OFFCURVE",
"258 396 CURVE",
"258 441 OFFCURVE",
"225 486 OFFCURVE",
"157 486 CURVE"
);
},
{
closed = 1;
nodes = (
"130 284 OFFCURVE",
"71 240 OFFCURVE",
"71 176 CURVE SMOOTH",
"71 94 OFFCURVE",
"141 48 OFFCURVE",
"237 48 CURVE SMOOTH",
"322 48 OFFCURVE",
"377 94 OFFCURVE",
"377 95 CURVE",
"377 191 LINE",
"377 191 OFFCURVE",
"324 129 OFFCURVE",
"234 129 CURVE SMOOTH",
"196 129 OFFCURVE",
"159 139 OFFCURVE",
"159 169 CURVE SMOOTH",
"159 195 OFFCURVE",
"204 204 OFFCURVE",
"271 212 CURVE",
"254 292 LINE"
);
},
{
closed = 1;
nodes = (
"287 466 LINE",
"287 396 LINE",
"517 396 LINE",
"517 466 LINE"
);
},
{
closed = 1;
nodes = (
"350 0 LINE",
"435 0 LINE",
"435 466 LINE",
"350 466 LINE"
);
}
);
};
guideLines = (
{
angle = 90;
position = "{392, 92}";
}
);
layerId = "CFA4B904-E3F1-48B6-A7F6-47DC1FF2A3E1";
name = Bold;
paths = (
{
closed = 1;
nodes = (
"78 486 OFFCURVE",
"40 426 OFFCURVE",
"40 369 CURVE",
"40 283 OFFCURVE",
"113 239 OFFCURVE",
"129 227 CURVE",
"224 267 LINE",
"224 267 OFFCURVE",
"124 291 OFFCURVE",
"124 371 CURVE",
"124 396 OFFCURVE",
"132 417 OFFCURVE",
"159 417 CURVE",
"172 417 OFFCURVE",
"181 409 OFFCURVE",
"181 397 CURVE",
"181 385 OFFCURVE",
"175 375 OFFCURVE",
"162 363 CURVE",
"215 318 LINE",
"236 340 OFFCURVE",
"255 364 OFFCURVE",
"255 396 CURVE",
"255 441 OFFCURVE",
"225 486 OFFCURVE",
"157 486 CURVE"
);
},
{
closed = 1;
nodes = (
"132 277 OFFCURVE",
"73 236 OFFCURVE",
"73 176 CURVE SMOOTH",
"73 97 OFFCURVE",
"141 50 OFFCURVE",
"237 50 CURVE SMOOTH",
"322 50 OFFCURVE",
"377 88 OFFCURVE",
"377 89 CURVE",
"377 183 LINE",
"377 183 OFFCURVE",
"334 129 OFFCURVE",
"234 129 CURVE SMOOTH",
"196 129 OFFCURVE",
"159 139 OFFCURVE",
"159 169 CURVE SMOOTH",
"159 195 OFFCURVE",
"204 204 OFFCURVE",
"271 212 CURVE",
"256 285 LINE"
);
},
{
closed = 1;
nodes = (
"287 466 LINE",
"287 396 LINE",
"527 396 LINE",
"527 466 LINE"
);
},
{
closed = 1;
nodes = (
"350 0 LINE",
"435 0 LINE",
"435 466 LINE",
"350 466 LINE"
);
}
);
width = 503;
}
);
unicode = 0927;
},
{
glyphname = nadeva;
lastChange = "2014-09-16 06:13:03 +0530";
layers = (
{
anchors = (
{
name = bottom;
position = "{308, 5}";
},
{
name = top;
position = "{308, 447}";
}
);
background = {
paths = (
{
closed = 1;
nodes = (
"280 0 LINE",
"336 0 LINE",
"336 456 LINE",
"280 456 LINE"
);
},
{
closed = 1;
nodes = (
"-21 456 LINE",
"-21 408 LINE",
"434 408 LINE",
"434 456 LINE"
);
},
{
closed = 1;
nodes = (
"37 256 LINE",
"37 224 LINE",
"88 117 LINE",
"88 117 OFFCURVE",
"128 117 OFFCURVE",
"128 117 CURVE",
"128 256 LINE"
);
},
{
closed = 1;
nodes = (
"94 256 LINE",
"94 208 LINE",
"314 208 LINE",
"314 256 LINE"
);
}
);
};
guideLines = (
{
angle = 90;
position = "{308, 132}";
}
);
layerId = "CFA4B904-E3F1-48B6-A7F6-47DC1FF2A3E1";
name = Bold;
paths = (
{
closed = 1;
nodes = (
"284 0 LINE",
"369 0 LINE",
"369 466 LINE",
"284 466 LINE"
);
},
{
closed = 1;
nodes = (
"-24 466 LINE",
"-24 396 LINE",
"461 396 LINE",
"461 466 LINE"
);
},
{
closed = 1;
nodes = (
"47 270 LINE",
"37 228 LINE",
"98 95 LINE",
"98 95 OFFCURVE",
"155 95 OFFCURVE",
"155 95 CURVE",
"155 270 LINE"
);
},
{
closed = 1;
nodes = (
"94 270 LINE",
"94 192 LINE",
"319 192 LINE",
"319 270 LINE"
);
}
);
width = 437;
}
);
unicode = 0928;
},
{
glyphname = nnnadeva;
lastChange = "2014-09-16 06:13:03 +0530";
layers = (
{
anchors = (
{
name = bottom;
position = "{308, 5}";
},
{
name = top;
position = "{308, 447}";
}
);
background = {
paths = (
{
closed = 1;
nodes = (
"281 0 LINE",
"366 0 LINE",
"366 466 LINE",
"281 466 LINE"
);
},
{
closed = 1;
nodes = (
"-24 466 LINE",
"-24 396 LINE",
"435 396 LINE",
"435 466 LINE"
);
},
{
closed = 1;
nodes = (
"34 275 LINE",
"34 233 LINE",
"95 105 LINE",
"95 105 OFFCURVE",
"152 105 OFFCURVE",
"152 105 CURVE",
"152 275 LINE"
);
},
{
closed = 1;
nodes = (
"91 275 LINE",
"91 197 LINE",
"316 197 LINE",
"316 275 LINE"
);
}
);
};
components = (
{
name = nuktadeva;
transform = "{1, 0, 0, 1, 210, 84}";
}
);
layerId = "CFA4B904-E3F1-48B6-A7F6-47DC1FF2A3E1";
name = Bold;
paths = (
{
closed = 1;
nodes = (
"284 0 LINE",
"369 0 LINE",
"369 466 LINE",
"284 466 LINE"
);
},
{
closed = 1;
nodes = (
"-24 466 LINE",
"-24 396 LINE",
"461 396 LINE",
"461 466 LINE"
);
},
{
closed = 1;
nodes = (
"47 280 LINE",
"37 238 LINE",
"98 105 LINE",
"98 105 OFFCURVE",
"155 105 OFFCURVE",
"155 105 CURVE",
"155 280 LINE"
);
},
{
closed = 1;
nodes = (
"94 280 LINE",
"94 202 LINE",
"319 202 LINE",
"319 280 LINE"
);
}
);
width = 437;
}
);
unicode = 0929;
},
{
glyphname = padeva;
lastChange = "2014-09-16 06:13:03 +0530";
layers = (
{
anchors = (
{
name = bottom;
position = "{346, 5}";
},
{
name = top;
position = "{346, 447}";
}
);
background = {
paths = (
{
closed = 1;
nodes = (
"307 0 LINE",
"363 0 LINE",
"363 456 LINE",
"307 456 LINE"
);
},
{
closed = 1;
nodes = (
"-24 456 LINE",
"-24 408 LINE",
"461 408 LINE",
"461 456 LINE"
);
},
{
closed = 1;
nodes = (
"343 190 OFFCURVE",
"279 153 OFFCURVE",
"205 153 CURVE SMOOTH",
"151 153 OFFCURVE",
"114 188 OFFCURVE",
"114 244 CURVE SMOOTH",
"114 456 LINE",
"58 456 LINE",
"58 244 LINE SMOOTH",
"58 164 OFFCURVE",
"107 103 OFFCURVE",
"207 103 CURVE SMOOTH",
"270 103 OFFCURVE",
"343 133 OFFCURVE",
"343 133 CURVE",
"343 190 LINE"
);
}
);
};
layerId = "CFA4B904-E3F1-48B6-A7F6-47DC1FF2A3E1";
name = Bold;
paths = (
{
closed = 1;
nodes = (
"357 222 OFFCURVE",
"313 169 OFFCURVE",
"219 169 CURVE SMOOTH",
"165 169 OFFCURVE",
"148 202 OFFCURVE",
"148 260 CURVE SMOOTH",
"148 456 LINE",
"63 456 LINE",
"63 238 LINE SMOOTH",
"63 157 OFFCURVE",
"121 91 OFFCURVE",
"221 91 CURVE SMOOTH",
"294 91 OFFCURVE",
"357 131 OFFCURVE",
"357 131 CURVE",
"357 222 LINE"
);
},
{
closed = 1;
nodes = (
"302 0 LINE",
"387 0 LINE",
"387 466 LINE",
"302 466 LINE"
);
},
{
closed = 1;
nodes = (
"-24 466 LINE",
"-24 396 LINE",
"480 396 LINE",
"480 466 LINE"
);
}
);
width = 456;
}
);
unicode = 092A;
},
{
glyphname = phadeva;
lastChange = "2014-09-16 06:13:03 +0530";
layers = (
{
anchors = (
{
name = bottom;
position = "{340, 5}";
},
{
name = top;
position = "{340, 447}";
}
);
background = {
paths = (
{
closed = 1;
nodes = (
"352 216 OFFCURVE",
"298 169 OFFCURVE",
"214 169 CURVE SMOOTH",
"160 169 OFFCURVE",
"143 204 OFFCURVE",
"143 260 CURVE SMOOTH",
"143 456 LINE",
"58 456 LINE",
"58 234 LINE SMOOTH",
"58 154 OFFCURVE",
"116 93 OFFCURVE",
"216 93 CURVE SMOOTH",
"289 93 OFFCURVE",
"352 133 OFFCURVE",
"352 133 CURVE",
"352 216 LINE"
);
},
{
closed = 1;
nodes = (
"297 0 LINE",
"382 0 LINE",
"382 466 LINE",
"297 466 LINE"
);
},
{
closed = 1;
nodes = (
"-24 466 LINE",
"-24 396 LINE",
"660 396 LINE",
"660 466 LINE"
);
},
{
closed = 1;
nodes = (
"606 291 OFFCURVE",
"552 345 OFFCURVE",
"465 345 CURVE SMOOTH",
"393 345 OFFCURVE",
"360 308 OFFCURVE",
"333 290 CURVE",
"347 206 LINE",
"363 218 OFFCURVE",
"405 267 OFFCURVE",
"461 267 CURVE SMOOTH",
"506 267 OFFCURVE",
"525 236 OFFCURVE",
"525 200 CURVE SMOOTH",
"525 154 OFFCURVE",
"500 134 OFFCURVE",
"471 107 CURVE",
"531 50 LINE",
"575 88 OFFCURVE",
"606 128 OFFCURVE",
"606 199 CURVE SMOOTH"
);
}
);
};
guideLines = (
{
angle = 90;
position = "{321, 51}";
}
);
layerId = "CFA4B904-E3F1-48B6-A7F6-47DC1FF2A3E1";
name = Bold;
paths = (
{
closed = 1;
nodes = (
"357 216 OFFCURVE",
"303 169 OFFCURVE",
"219 169 CURVE SMOOTH",
"165 169 OFFCURVE",
"148 204 OFFCURVE",
"148 260 CURVE SMOOTH",
"148 456 LINE",
"63 456 LINE",
"63 234 LINE SMOOTH",
"63 154 OFFCURVE",
"121 93 OFFCURVE",
"221 93 CURVE SMOOTH",
"294 93 OFFCURVE",
"357 133 OFFCURVE",
"357 133 CURVE",
"357 216 LINE"
);
},
{
closed = 1;
nodes = (
"302 0 LINE",
"387 0 LINE",
"387 466 LINE",
"302 466 LINE"
);
},
{
closed = 1;
nodes = (
"-24 466 LINE",
"-24 396 LINE",
"683 396 LINE",
"683 466 LINE"
);
},
{
closed = 1;
nodes = (
"612 296 OFFCURVE",
"552 345 OFFCURVE",
"470 345 CURVE SMOOTH",
"398 345 OFFCURVE",
"365 308 OFFCURVE",
"338 290 CURVE",
"352 210 LINE",
"368 222 OFFCURVE",
"420 267 OFFCURVE",
"466 267 CURVE SMOOTH",
"511 267 OFFCURVE",
"530 241 OFFCURVE",
"530 205 CURVE SMOOTH",
"530 159 OFFCURVE",
"497 132 OFFCURVE",
"476 112 CURVE",
"533 55 LINE",
"573 88 OFFCURVE",
"612 134 OFFCURVE",
"612 204 CURVE SMOOTH"
);
}
);
width = 659;
}
);
unicode = 092B;
},
{
glyphname = badeva;
lastChange = "2014-09-16 06:13:03 +0530";
layers = (
{
anchors = (
{
name = bottom;
position = "{314, 5}";
},
{
name = top;
position = "{314, 447}";
}
);
background = {
paths = (
{
closed = 1;
nodes = (
"-24 466 LINE",
"-24 396 LINE",
"445 396 LINE",
"445 466 LINE"
);
},
{
closed = 1;
nodes = (
"101 245 OFFCURVE",
"143 268 OFFCURVE",
"189 268 CURVE SMOOTH",
"241 268 OFFCURVE",
"267 240 OFFCURVE",
"283 223 CURVE",
"299 304 LINE",
"272 320 OFFCURVE",
"239 345 OFFCURVE",
"175 345 CURVE SMOOTH",
"92 345 OFFCURVE",
"20 295 OFFCURVE",
"20 197 CURVE SMOOTH",
"20 103 OFFCURVE",
"92 50 OFFCURVE",
"175 50 CURVE SMOOTH",
"237 50 OFFCURVE",
"272 72 OFFCURVE",
"299 90 CURVE",
"283 170 LINE",
"267 158 OFFCURVE",
"241 125 OFFCURVE",
"189 125 CURVE SMOOTH",
"143 125 OFFCURVE",
"101 149 OFFCURVE",
"101 197 CURVE SMOOTH"
);
},
{
closed = 1;
nodes = (
"271 0 LINE",
"356 0 LINE",
"356 466 LINE",
"271 466 LINE"
);
},
{
closed = 1;
nodes = (
"258 90 LINE",
"300 130 LINE",
"131 306 LINE",
"82 270 LINE"
);
}
);
};
layerId = "CFA4B904-E3F1-48B6-A7F6-47DC1FF2A3E1";
name = Bold;
paths = (
{
closed = 1;
nodes = (
"-24 466 LINE",
"-24 396 LINE",
"465 396 LINE",
"465 466 LINE"
);
},
{
closed = 1;
nodes = (
"118 245 OFFCURVE",
"160 268 OFFCURVE",
"206 268 CURVE SMOOTH",
"258 268 OFFCURVE",
"284 241 OFFCURVE",
"300 228 CURVE",
"316 301 LINE",
"289 317 OFFCURVE",
"256 342 OFFCURVE",
"192 342 CURVE SMOOTH",
"109 342 OFFCURVE",
"40 292 OFFCURVE",
"40 197 CURVE SMOOTH",
"40 106 OFFCURVE",
"109 53 OFFCURVE",
"192 53 CURVE SMOOTH",
"254 53 OFFCURVE",
"289 75 OFFCURVE",
"316 93 CURVE",
"300 170 LINE",
"284 158 OFFCURVE",
"258 125 OFFCURVE",
"206 125 CURVE SMOOTH",
"160 125 OFFCURVE",
"118 149 OFFCURVE",
"118 197 CURVE SMOOTH"
);
},
{
closed = 1;
nodes = (
"288 0 LINE",
"373 0 LINE",
"373 466 LINE",
"288 466 LINE"
);
},
{
closed = 1;
nodes = (
"275 90 LINE",
"317 130 LINE",
"148 306 LINE",
"99 270 LINE"
);
}
);
width = 441;
}
);
unicode = 092C;
},
{
glyphname = bhadeva;
lastChange = "2014-09-16 06:13:03 +0530";
layers = (
{
anchors = (
{
name = bottom;
position = "{431, 5}";
},
{
name = top;
position = "{431, 447}";
}
);
background = {
paths = (
{
closed = 1;
nodes = (
"388 0 LINE",
"473 0 LINE",
"473 466 LINE",
"388 466 LINE"
);
},
{
closed = 1;
nodes = (
"250 125 LINE",
"250 310 LINE SMOOTH",
"250 422 OFFCURVE",
"210 479 OFFCURVE",
"126 479 CURVE SMOOTH",
"57 479 OFFCURVE",
"12 434 OFFCURVE",
"12 369 CURVE SMOOTH",
"12 317 OFFCURVE",
"46 277 OFFCURVE",
"95 251 CURVE",
"133 311 LINE",
"109 325 OFFCURVE",
"86 341 OFFCURVE",
"86 369 CURVE SMOOTH",
"86 389 OFFCURVE",
"100 403 OFFCURVE",
"119 403 CURVE SMOOTH",
"165 403 OFFCURVE",
"160 329 OFFCURVE",
"160 310 CURVE SMOOTH",
"160 125 LINE"
);
},
{
closed = 1;
nodes = (
"307 466 LINE",
"307 396 LINE",
"557 396 LINE",
"557 466 LINE"
);
},
{
closed = 1;
nodes = (
"219 206 LINE",
"219 128 LINE",
"448 128 LINE",
"448 206 LINE"
);
},
{
closed = 1;
nodes = (
"94 206 LINE",
"94 164 LINE",
"193 41 LINE",
"193 41 OFFCURVE",
"250 41 OFFCURVE",
"250 41 CURVE",
"250 206 LINE"
);
}
);
};
guideLines = (
{
angle = 90;
position = "{431, 71}";
}
);
layerId = "CFA4B904-E3F1-48B6-A7F6-47DC1FF2A3E1";
name = Bold;
paths = (
{
closed = 1;
nodes = (
"385 0 LINE",
"470 0 LINE",
"470 466 LINE",
"385 466 LINE"
);
},
{
closed = 1;
nodes = (
"250 125 LINE",
"250 310 LINE SMOOTH",
"250 422 OFFCURVE",
"213 479 OFFCURVE",
"129 479 CURVE SMOOTH",
"60 479 OFFCURVE",
"15 434 OFFCURVE",
"15 369 CURVE SMOOTH",
"15 317 OFFCURVE",
"49 277 OFFCURVE",
"98 251 CURVE",
"136 311 LINE",
"112 325 OFFCURVE",
"89 341 OFFCURVE",
"89 369 CURVE SMOOTH",
"89 389 OFFCURVE",
"103 403 OFFCURVE",
"122 403 CURVE SMOOTH",
"168 403 OFFCURVE",
"163 329 OFFCURVE",
"163 310 CURVE SMOOTH",
"163 125 LINE"
);
},
{
closed = 1;
nodes = (
"304 466 LINE",
"304 396 LINE",
"562 396 LINE",
"562 466 LINE"
);
},
{
closed = 1;
nodes = (
"216 206 LINE",
"216 131 LINE",
"445 131 LINE",
"445 206 LINE"
);
},
{
closed = 1;
nodes = (
"97 206 LINE",
"97 164 LINE",
"196 41 LINE",
"196 41 OFFCURVE",
"250 41 OFFCURVE",
"250 41 CURVE",
"250 206 LINE"
);
}
);
width = 538;
}
);
unicode = 092D;
},
{
glyphname = madeva;
lastChange = "2014-09-16 06:13:03 +0530";
layers = (
{
anchors = (
{
name = bottom;
position = "{369, 5}";
},
{
name = top;
position = "{368, 447}";
}
);
background = {
paths = (
{
closed = 1;
nodes = (
"341 0 LINE",
"397 0 LINE",
"397 456 LINE",
"341 456 LINE"
);
},
{
closed = 1;
nodes = (
"104 140 LINE",
"159 140 LINE",
"159 456 LINE",
"104 456 LINE"
);
},
{
closed = 1;
nodes = (
"-16 456 LINE",
"-16 408 LINE",
"495 408 LINE",
"495 456 LINE"
);
},
{
closed = 1;
nodes = (
"42 204 LINE",
"42 171 LINE",
"121 76 LINE",
"121 76 OFFCURVE",
"159 76 OFFCURVE",
"159 76 CURVE",
"159 204 LINE"
);
},
{
closed = 1;
nodes = (
"127 204 LINE",
"127 156 LINE",
"387 156 LINE",
"387 204 LINE"
);
},
{
closed = 1;
nodes = (
"341 0 LINE",
"397 0 LINE",
"397 456 LINE",
"341 456 LINE"
);
},
{
closed = 1;
nodes = (
"104 140 LINE",
"159 140 LINE",
"159 456 LINE",
"104 456 LINE"
);
},
{
closed = 1;
nodes = (
"-16 456 LINE",
"-16 408 LINE",
"495 408 LINE",
"495 456 LINE"
);
},
{
closed = 1;
nodes = (
"42 204 LINE",
"42 171 LINE",
"121 76 LINE",
"159 76 LINE",
"159 204 LINE"
);
},
{
closed = 1;
nodes = (
"127 204 LINE",
"127 156 LINE",
"387 156 LINE",
"387 204 LINE"
);
}
);
};
guideLines = (
{
angle = 90;
position = "{369, 81}";
}
);
layerId = "CFA4B904-E3F1-48B6-A7F6-47DC1FF2A3E1";
name = Bold;
paths = (
{
closed = 1;
nodes = (
"352 0 LINE",
"437 0 LINE",
"437 466 LINE",
"352 466 LINE"
);
},
{
closed = 1;
nodes = (
"-24 466 LINE",
"-24 396 LINE",
"529 396 LINE",
"529 466 LINE"
);
},
{
closed = 1;
nodes = (
"42 216 LINE",
"42 174 LINE",
"141 51 LINE",
"141 51 OFFCURVE",
"198 51 OFFCURVE",
"198 51 CURVE",
"198 216 LINE"
);
},
{
closed = 1;
nodes = (
"137 216 LINE",
"137 138 LINE",
"390 138 LINE",
"390 216 LINE"
);
},
{
closed = 1;
nodes = (
"113 138 LINE",
"198 138 LINE",
"198 466 LINE",
"113 466 LINE"
);
}
);
width = 505;
}
);
unicode = 092E;
},
{
glyphname = yadeva;
lastChange = "2014-09-16 06:13:03 +0530";
layers = (
{
anchors = (
{
name = bottom;
position = "{360, 5}";
},
{
name = top;
position = "{360, 447}";
}
);
background = {
paths = (
{
closed = 1;
nodes = (
"329 179 OFFCURVE",
"276 156 OFFCURVE",
"225 156 CURVE SMOOTH",
"191 156 OFFCURVE",
"164 169 OFFCURVE",
"145 184 CURVE",
"187 225 OFFCURVE",
"209 253 OFFCURVE",
"209 306 CURVE SMOOTH",
"209 356 OFFCURVE",
"175 414 OFFCURVE",
"121 456 CURVE",
"23 456 LINE",
"83 414 OFFCURVE",
"127 356 OFFCURVE",
"123 307 CURVE SMOOTH",
"119 258 OFFCURVE",
"82 234 OFFCURVE",
"50 217 CURVE",
"37 182 LINE",
"64 128 OFFCURVE",
"139 73 OFFCURVE",
"230 73 CURVE SMOOTH",
"302 73 OFFCURVE",
"355 115 OFFCURVE",
"355 115 CURVE",
"355 224 LINE"
);
},
{
closed = 1;
nodes = (
"-21 466 LINE",
"-21 396 LINE",
"486 396 LINE",
"486 466 LINE"
);
},
{
closed = 1;
nodes = (
"317 0 LINE",
"402 0 LINE",
"402 466 LINE",
"317 466 LINE"
);
}
);
};
guideLines = (
{
angle = 90;
position = "{360, 43}";
}
);
layerId = "CFA4B904-E3F1-48B6-A7F6-47DC1FF2A3E1";
name = Bold;
paths = (
{
closed = 1;
nodes = (
"329 179 OFFCURVE",
"276 156 OFFCURVE",
"225 156 CURVE SMOOTH",
"191 156 OFFCURVE",
"164 169 OFFCURVE",
"145 184 CURVE",
"187 225 OFFCURVE",
"209 253 OFFCURVE",
"209 306 CURVE SMOOTH",
"209 356 OFFCURVE",
"175 414 OFFCURVE",
"121 456 CURVE",
"23 456 LINE",
"83 414 OFFCURVE",
"127 356 OFFCURVE",
"123 307 CURVE SMOOTH",
"119 258 OFFCURVE",
"82 234 OFFCURVE",
"50 217 CURVE",
"37 185 LINE",
"64 131 OFFCURVE",
"139 76 OFFCURVE",
"230 76 CURVE SMOOTH",
"302 76 OFFCURVE",
"355 118 OFFCURVE",
"355 118 CURVE",
"355 224 LINE"
);
},
{
closed = 1;
nodes = (
"-24 466 LINE",
"-24 396 LINE",
"494 396 LINE",
"494 466 LINE"
);
},
{
closed = 1;
nodes = (
"317 0 LINE",
"402 0 LINE",
"402 466 LINE",
"317 466 LINE"
);
}
);
width = 470;
}
);
unicode = 092F;
},
{
glyphname = radeva;
lastChange = "2014-09-16 06:13:03 +0530";
layers = (
{
anchors = (
{
name = top;
position = "{113, 447}";
}
);
background = {
paths = (
{
closed = 1;
nodes = (
"-18 456 LINE",
"-18 408 LINE",
"301 408 LINE",
"301 456 LINE"
);
},
{
closed = 1;
nodes = (
"87 427 OFFCURVE",
"158 403 OFFCURVE",
"158 306 CURVE SMOOTH",
"158 209 OFFCURVE",
"44 206 OFFCURVE",
"44 206 CURVE SMOOTH",
"44 206 OFFCURVE",
"66 157 OFFCURVE",
"66 157 CURVE",
"105 157 OFFCURVE",
"212 191 OFFCURVE",
"212 304 CURVE SMOOTH",
"212 412 OFFCURVE",
"139 443 OFFCURVE",
"139 443 CURVE",
"87 427 LINE"
);
},
{
closed = 1;
nodes = (
"-24 456 LINE",
"-24 408 LINE",
"293 408 LINE",
"293 456 LINE"
);
},
{
closed = 1;
nodes = (
"87 427 OFFCURVE",
"158 403 OFFCURVE",
"158 306 CURVE SMOOTH",
"158 209 OFFCURVE",
"44 206 OFFCURVE",
"44 206 CURVE SMOOTH",
"44 206 OFFCURVE",
"66 157 OFFCURVE",
"66 157 CURVE",
"105 157 OFFCURVE",
"212 191 OFFCURVE",
"212 304 CURVE SMOOTH",
"212 412 OFFCURVE",
"139 443 OFFCURVE",
"139 443 CURVE",
"87 427 LINE"
);
},
{
closed = 1;
nodes = (
"14 212 OFFCURVE",
"184 -13 OFFCURVE",
"184 -13 CURVE SMOOTH",
"184 -13 OFFCURVE",
"231 19 OFFCURVE",
"231 19 CURVE",
"55 244 LINE",
"14 212 LINE"
);
}
);
};
layerId = "CFA4B904-E3F1-48B6-A7F6-47DC1FF2A3E1";
name = Bold;
paths = (
{
closed = 1;
nodes = (
"95 423 OFFCURVE",
"175 403 OFFCURVE",
"175 306 CURVE SMOOTH",
"175 217 OFFCURVE",
"72 216 OFFCURVE",
"72 216 CURVE SMOOTH",
"72 216 OFFCURVE",
"102 148 OFFCURVE",
"102 148 CURVE",
"160 148 OFFCURVE",
"259 195 OFFCURVE",
"259 304 CURVE SMOOTH",
"259 410 OFFCURVE",
"181 448 OFFCURVE",
"181 448 CURVE",
"95 423 LINE"
);
},
{
closed = 1;
nodes = (
"198 -20 LINE",
"198 -20 OFFCURVE",
"266 27 OFFCURVE",
"266 27 CURVE",
"88 254 LINE",
"25 205 LINE"
);
},
{
closed = 1;
nodes = (
"-24 466 LINE",
"-24 396 LINE",
"345 396 LINE",
"345 466 LINE"
);
}
);
width = 321;
}
);
unicode = 0930;
},
{
glyphname = rradeva;
lastChange = "2014-09-16 06:13:03 +0530";
layers = (
{
anchors = (
{
name = top;
position = "{113, 447}";
}
);
background = {
paths = (
{
closed = 1;
nodes = (
"9 0 LINE",
"68 0 LINE",
"68 58 LINE",
"9 58 LINE"
);
}
);
};
components = (
{
name = radeva;
transform = "{1, 0, 0, 1, 0, 0}";
},
{
name = nuktadeva;
transform = "{1, 0, 0, 1, 60, 88}";
}
);
layerId = "CFA4B904-E3F1-48B6-A7F6-47DC1FF2A3E1";
name = Bold;
width = 321;
}
);
unicode = 0931;
},
{
glyphname = ladeva;
lastChange = "2014-09-16 06:13:03 +0530";
layers = (
{
anchors = (
{
name = bottom;
position = "{439, 5}";
},
{
name = top;
position = "{439, 447}";
}
);
background = {
paths = (
{
closed = 1;
nodes = (
"399 0 LINE",
"483 0 LINE",
"483 466 LINE",
"399 466 LINE"
);
},
{
closed = 1;
nodes = (
"-19 466 LINE",
"-19 396 LINE",
"565 396 LINE",
"565 466 LINE"
);
},
{
closed = 1;
nodes = (
"282 280 OFFCURVE",
"242 314 OFFCURVE",
"177 314 CURVE SMOOTH",
"102 314 OFFCURVE",
"42 263 OFFCURVE",
"42 172 CURVE SMOOTH",
"42 74 OFFCURVE",
"140 -23 OFFCURVE",
"140 -23 CURVE",
"221 13 LINE",
"200 35 OFFCURVE",
"131 111 OFFCURVE",
"131 169 CURVE SMOOTH",
"131 208 OFFCURVE",
"147 228 OFFCURVE",
"187 228 CURVE SMOOTH",
"228 228 OFFCURVE",
"252 181 OFFCURVE",
"252 181 CURVE",
"310 239 LINE"
);
},
{
closed = 1;
nodes = (
"228 118 OFFCURVE",
"314 105 OFFCURVE",
"314 105 CURVE",
"313 115 OFFCURVE",
"311 140 OFFCURVE",
"311 162 CURVE SMOOTH",
"311 207 OFFCURVE",
"336 230 OFFCURVE",
"372 229 CURVE SMOOTH",
"397 228 OFFCURVE",
"419 219 OFFCURVE",
"437 205 CURVE",
"431 297 LINE",
"408 310 OFFCURVE",
"387 312 OFFCURVE",
"368 312 CURVE SMOOTH",
"292 312 OFFCURVE",
"225 271 OFFCURVE",
"225 169 CURVE SMOOTH",
"225 159 OFFCURVE",
"226 128 OFFCURVE",
"228 118 CURVE"
);
}
);
};
guideLines = (
{
angle = 90;
position = "{439, 393}";
}
);
layerId = "CFA4B904-E3F1-48B6-A7F6-47DC1FF2A3E1";
name = Bold;
paths = (
{
closed = 1;
nodes = (
"399 0 LINE",
"483 0 LINE",
"483 466 LINE",
"399 466 LINE"
);
},
{
closed = 1;
nodes = (
"-24 466 LINE",
"-24 396 LINE",
"575 396 LINE",
"575 466 LINE"
);
},
{
closed = 1;
nodes = (
"282 277 OFFCURVE",
"242 311 OFFCURVE",
"177 311 CURVE SMOOTH",
"102 311 OFFCURVE",
"45 259 OFFCURVE",
"45 172 CURVE SMOOTH",
"45 74 OFFCURVE",
"143 -23 OFFCURVE",
"143 -23 CURVE",
"218 12 LINE",
"197 34 OFFCURVE",
"129 111 OFFCURVE",
"129 169 CURVE SMOOTH",
"129 208 OFFCURVE",
"145 230 OFFCURVE",
"187 230 CURVE SMOOTH",
"228 230 OFFCURVE",
"252 183 OFFCURVE",
"252 183 CURVE",
"310 236 LINE"
);
},
{
closed = 1;
nodes = (
"231 118 OFFCURVE",
"312 105 OFFCURVE",
"312 105 CURVE",
"311 115 OFFCURVE",
"309 140 OFFCURVE",
"309 162 CURVE SMOOTH",
"309 207 OFFCURVE",
"333 232 OFFCURVE",
"372 231 CURVE SMOOTH",
"397 230 OFFCURVE",
"419 221 OFFCURVE",
"437 207 CURVE",
"431 294 LINE",
"408 307 OFFCURVE",
"387 309 OFFCURVE",
"368 309 CURVE SMOOTH",
"292 309 OFFCURVE",
"228 271 OFFCURVE",
"228 169 CURVE SMOOTH",
"228 159 OFFCURVE",
"229 128 OFFCURVE",
"231 118 CURVE"
);
}
);
width = 551;
}
);
unicode = 0932;
},
{
glyphname = vadeva;
lastChange = "2014-09-16 06:13:03 +0530";
layers = (
{
anchors = (
{
name = bottom;
position = "{327, 5}";
},
{
name = top;
position = "{322, 447}";
}
);
background = {
paths = (
{
closed = 1;
nodes = (
"-6 466 LINE",
"-6 396 LINE",
"453 396 LINE",
"453 466 LINE"
);
},
{
closed = 1;
nodes = (
"122 245 OFFCURVE",
"161 265 OFFCURVE",
"207 265 CURVE SMOOTH",
"259 265 OFFCURVE",
"285 240 OFFCURVE",
"301 223 CURVE",
"317 304 LINE",
"290 320 OFFCURVE",
"257 345 OFFCURVE",
"193 345 CURVE SMOOTH",
"110 345 OFFCURVE",
"38 295 OFFCURVE",
"38 197 CURVE SMOOTH",
"38 103 OFFCURVE",
"110 50 OFFCURVE",
"193 50 CURVE SMOOTH",
"255 50 OFFCURVE",
"290 72 OFFCURVE",
"317 90 CURVE",
"301 170 LINE",
"285 158 OFFCURVE",
"259 129 OFFCURVE",
"207 129 CURVE SMOOTH",
"161 129 OFFCURVE",
"122 149 OFFCURVE",
"122 197 CURVE SMOOTH"
);
},
{
closed = 1;
nodes = (
"279 0 LINE",
"364 0 LINE",
"364 466 LINE",
"279 466 LINE"
);
}
);
};
layerId = "CFA4B904-E3F1-48B6-A7F6-47DC1FF2A3E1";
name = Bold;
paths = (
{
closed = 1;
nodes = (
"-24 466 LINE",
"-24 396 LINE",
"456 396 LINE",
"456 466 LINE"
);
},
{
closed = 1;
nodes = (
"122 245 OFFCURVE",
"161 265 OFFCURVE",
"207 265 CURVE SMOOTH",
"259 265 OFFCURVE",
"285 240 OFFCURVE",
"301 223 CURVE",
"317 302 LINE",
"290 318 OFFCURVE",
"257 343 OFFCURVE",
"193 343 CURVE SMOOTH",
"110 343 OFFCURVE",
"40 294 OFFCURVE",
"40 197 CURVE SMOOTH",
"40 104 OFFCURVE",
"110 52 OFFCURVE",
"193 52 CURVE SMOOTH",
"255 52 OFFCURVE",
"290 74 OFFCURVE",
"317 92 CURVE",
"301 170 LINE",
"285 158 OFFCURVE",
"259 129 OFFCURVE",
"207 129 CURVE SMOOTH",
"161 129 OFFCURVE",
"122 149 OFFCURVE",
"122 197 CURVE SMOOTH"
);
},
{
closed = 1;
nodes = (
"279 0 LINE",
"364 0 LINE",
"364 466 LINE",
"279 466 LINE"
);
}
);
width = 432;
}
);
unicode = 0935;
},
{
glyphname = shadeva;
lastChange = "2014-09-16 06:13:03 +0530";
layers = (
{
anchors = (
{
name = bottom;
position = "{439, 5}";
},
{
name = top;
position = "{439, 447}";
}
);
background = {
paths = (
{
closed = 1;
nodes = (
"287 414 OFFCURVE",
"234 466 OFFCURVE",
"170 466 CURVE SMOOTH",
"111 466 OFFCURVE",
"67 425 OFFCURVE",
"67 368 CURVE SMOOTH",
"67 329 OFFCURVE",
"90 297 OFFCURVE",
"139 268 CURVE",
"168 311 LINE",
"144 326 OFFCURVE",
"120 343 OFFCURVE",
"120 368 CURVE SMOOTH",
"120 398 OFFCURVE",
"142 413 OFFCURVE",
"170 413 CURVE SMOOTH",
"206 413 OFFCURVE",
"231 379 OFFCURVE",
"234 329 CURVE SMOOTH",
"239 233 OFFCURVE",
"137 193 OFFCURVE",
"102 174 CURVE",
"144 137 LINE",
"207 175 OFFCURVE",
"287 223 OFFCURVE",
"287 332 CURVE SMOOTH"
);
},
{
closed = 1;
nodes = (
"40 155 OFFCURVE",
"71 130 OFFCURVE",
"115 131 CURVE",
"248 -15 LINE",
"248 -15 OFFCURVE",
"286 21 OFFCURVE",
"286 21 CURVE",
"80 239 LINE",
"53 230 OFFCURVE",
"40 211 OFFCURVE",
"40 191 CURVE SMOOTH"
);
},
{
closed = 1;
nodes = (
"319 456 LINE",
"319 408 LINE",
"565 408 LINE",
"565 456 LINE"
);
},
{
closed = 1;
nodes = (
"411 0 LINE",
"467 0 LINE",
"467 456 LINE",
"411 456 LINE"
);
}
);
};
guideLines = (
{
angle = 90;
position = "{439, 175}";
}
);
layerId = "CFA4B904-E3F1-48B6-A7F6-47DC1FF2A3E1";
name = Bold;
paths = (
{
closed = 1;
nodes = (
"310 426 OFFCURVE",
"253 479 OFFCURVE",
"179 479 CURVE SMOOTH",
"120 479 OFFCURVE",
"65 443 OFFCURVE",
"65 373 CURVE SMOOTH",
"65 323 OFFCURVE",
"93 291 OFFCURVE",
"142 262 CURVE",
"182 322 LINE",
"158 340 OFFCURVE",
"145 351 OFFCURVE",
"145 372 CURVE SMOOTH",
"145 392 OFFCURVE",
"158 403 OFFCURVE",
"179 403 CURVE SMOOTH",
"205 403 OFFCURVE",
"227 379 OFFCURVE",
"229 348 CURVE SMOOTH",
"235 253 OFFCURVE",
"137 200 OFFCURVE",
"102 181 CURVE",
"157 118 LINE",
"220 159 OFFCURVE",
"310 225 OFFCURVE",
"310 338 CURVE SMOOTH"
);
},
{
closed = 1;
nodes = (
"35 155 OFFCURVE",
"59 123 OFFCURVE",
"117 117 CURVE",
"240 -23 LINE",
"240 -23 OFFCURVE",
"297 32 OFFCURVE",
"297 32 CURVE",
"91 250 LINE",
"58 245 OFFCURVE",
"35 221 OFFCURVE",
"35 191 CURVE SMOOTH"
);
},
{
closed = 1;
nodes = (
"344 466 LINE",
"344 396 LINE",
"589 396 LINE",
"589 466 LINE"
);
},
{
closed = 1;
nodes = (
"412 0 LINE",
"497 0 LINE",
"497 466 LINE",
"412 466 LINE"
);
}
);
width = 565;
}
);
unicode = 0936;
},
{
glyphname = ssadeva;
lastChange = "2014-09-16 06:13:03 +0530";
layers = (
{
anchors = (
{
name = bottom;
position = "{350, 5}";
},
{
name = top;
position = "{350, 447}";
}
);
background = {
paths = (
{
closed = 1;
nodes = (
"315 0 LINE",
"371 0 LINE",
"371 456 LINE",
"315 456 LINE"
);
},
{
closed = 1;
nodes = (
"-24 456 LINE",
"-24 408 LINE",
"469 408 LINE",
"469 456 LINE"
);
},
{
closed = 1;
nodes = (
"343 190 OFFCURVE",
"279 153 OFFCURVE",
"205 153 CURVE SMOOTH",
"151 153 OFFCURVE",
"114 188 OFFCURVE",
"114 244 CURVE SMOOTH",
"114 341 LINE SMOOTH",
"114 384 OFFCURVE",
"94 456 OFFCURVE",
"94 456 CURVE SMOOTH",
"58 456 LINE",
"58 244 LINE SMOOTH",
"58 164 OFFCURVE",
"107 103 OFFCURVE",
"207 103 CURVE SMOOTH",
"270 103 OFFCURVE",
"343 133 OFFCURVE",
"343 133 CURVE",
"343 190 LINE"
);
},
{
closed = 1;
nodes = (
"297 146 LINE",
"328 178 LINE",
"122 430 LINE",
"84 402 LINE"
);
}
);
};
layerId = "CFA4B904-E3F1-48B6-A7F6-47DC1FF2A3E1";
name = Bold;
paths = (
{
closed = 1;
nodes = (
"357 216 OFFCURVE",
"303 169 OFFCURVE",
"219 169 CURVE SMOOTH",
"165 169 OFFCURVE",
"148 204 OFFCURVE",
"148 260 CURVE SMOOTH",
"148 313 LINE",
"148 367 OFFCURVE",
"115 402 OFFCURVE",
"98 456 CURVE",
"63 456 LINE",
"63 234 LINE SMOOTH",
"63 154 OFFCURVE",
"121 93 OFFCURVE",
"221 93 CURVE SMOOTH",
"294 93 OFFCURVE",
"357 133 OFFCURVE",
"357 133 CURVE",
"357 216 LINE"
);
},
{
closed = 1;
nodes = (
"312 0 LINE",
"397 0 LINE",
"397 466 LINE",
"312 466 LINE"
);
},
{
closed = 1;
nodes = (
"-24 466 LINE",
"-24 396 LINE",
"489 396 LINE",
"489 466 LINE"
);
},
{
closed = 1;
nodes = (
"149 336 OFFCURVE",
"220 250 OFFCURVE",
"291 165 CURVE",
"338 207 LINE",
"132 459 LINE",
"78 421 LINE"
);
}
);
width = 465;
}
);
unicode = 0937;
},
{
glyphname = sadeva;
lastChange = "2014-09-16 06:13:03 +0530";
layers = (
{
anchors = (
{
name = bottom;
position = "{438, 5}";
},
{
name = top;
position = "{438, 447}";
}
);
background = {
paths = (
{
closed = 1;
nodes = (
"106 427 OFFCURVE",
"177 403 OFFCURVE",
"177 306 CURVE SMOOTH",
"177 209 OFFCURVE",
"63 206 OFFCURVE",
"63 206 CURVE SMOOTH",
"63 206 OFFCURVE",
"85 157 OFFCURVE",
"85 157 CURVE",
"124 157 OFFCURVE",
"231 191 OFFCURVE",
"231 304 CURVE SMOOTH",
"231 412 OFFCURVE",
"158 443 OFFCURVE",
"158 443 CURVE",
"106 427 LINE"
);
},
{
closed = 1;
nodes = (
"33 212 OFFCURVE",
"205 -18 OFFCURVE",
"205 -18 CURVE SMOOTH",
"205 -18 OFFCURVE",
"252 14 OFFCURVE",
"252 14 CURVE",
"74 244 LINE",
"33 212 LINE"
);
},
{
closed = 1;
nodes = (
"404 0 LINE",
"460 0 LINE",
"460 456 LINE",
"404 456 LINE"
);
},
{
closed = 1;
nodes = (
"424 237 OFFCURVE",
"381 216 OFFCURVE",
"298 216 CURVE SMOOTH",
"262 216 OFFCURVE",
"206 220 OFFCURVE",
"160 239 CURVE",
"136 192 LINE",
"194 172 OFFCURVE",
"245 162 OFFCURVE",
"287 162 CURVE SMOOTH",
"373 162 OFFCURVE",
"424 180 OFFCURVE",
"424 180 CURVE",
"424 237 LINE"
);
},
{
closed = 1;
nodes = (
"1 456 LINE",
"1 408 LINE",
"558 408 LINE",
"558 456 LINE"
);
},
{
closed = 1;
nodes = (
"404 0 LINE",
"460 0 LINE",
"460 456 LINE",
"404 456 LINE"
);
},
{
closed = 1;
nodes = (
"112 427 OFFCURVE",
"183 403 OFFCURVE",
"183 306 CURVE SMOOTH",
"183 209 OFFCURVE",
"69 206 OFFCURVE",
"69 206 CURVE SMOOTH",
"69 206 OFFCURVE",
"91 157 OFFCURVE",
"91 157 CURVE",
"130 157 OFFCURVE",
"237 191 OFFCURVE",
"237 304 CURVE SMOOTH",
"237 412 OFFCURVE",
"164 443 OFFCURVE",
"164 443 CURVE",
"112 427 LINE"
);
},
{
closed = 1;
nodes = (
"39 212 OFFCURVE",
"211 -18 OFFCURVE",
"211 -18 CURVE SMOOTH",
"211 -18 OFFCURVE",
"258 14 OFFCURVE",
"258 14 CURVE",
"80 244 LINE",
"39 212 LINE"
);
},
{
closed = 1;
nodes = (
"410 0 LINE",
"466 0 LINE",
"466 456 LINE",
"410 456 LINE"
);
},
{
closed = 1;
nodes = (
"430 237 OFFCURVE",
"387 216 OFFCURVE",
"304 216 CURVE SMOOTH",
"268 216 OFFCURVE",
"212 220 OFFCURVE",
"166 239 CURVE",
"142 192 LINE",
"200 172 OFFCURVE",
"251 162 OFFCURVE",
"293 162 CURVE SMOOTH",
"379 162 OFFCURVE",
"430 180 OFFCURVE",
"430 180 CURVE",
"430 237 LINE"
);
},
{
closed = 1;
nodes = (
"1 456 LINE",
"1 408 LINE",
"564 408 LINE",
"564 456 LINE"
);
},
{
closed = 1;
nodes = (
"410 0 LINE",
"466 0 LINE",
"466 456 LINE",
"410 456 LINE"
);
}
);
};
guideLines = (
{
angle = 90;
position = "{438, 310}";
}
);
layerId = "CFA4B904-E3F1-48B6-A7F6-47DC1FF2A3E1";
name = Bold;
paths = (
{
closed = 1;
nodes = (
"-24 466 LINE",
"-24 396 LINE",
"573 396 LINE",
"573 466 LINE"
);
},
{
closed = 1;
nodes = (
"396 0 LINE",
"481 0 LINE",
"481 466 LINE",
"396 466 LINE"
);
},
{
closed = 1;
nodes = (
"430 248 OFFCURVE",
"387 223 OFFCURVE",
"315 223 CURVE SMOOTH",
"248 223 OFFCURVE",
"237 233 OFFCURVE",
"201 248 CURVE",
"142 190 LINE",
"200 160 OFFCURVE",
"261 148 OFFCURVE",
"303 148 CURVE SMOOTH",
"369 148 OFFCURVE",
"430 167 OFFCURVE",
"430 167 CURVE",
"430 248 LINE"
);
},
{
closed = 1;
nodes = (
"105 423 OFFCURVE",
"179 403 OFFCURVE",
"179 306 CURVE SMOOTH",
"179 217 OFFCURVE",
"72 216 OFFCURVE",
"72 216 CURVE SMOOTH",
"72 216 OFFCURVE",
"102 147 OFFCURVE",
"102 147 CURVE",
"160 147 OFFCURVE",
"259 195 OFFCURVE",
"259 304 CURVE SMOOTH",
"259 410 OFFCURVE",
"186 448 OFFCURVE",
"186 448 CURVE",
"105 423 LINE"
);
},
{
closed = 1;
nodes = (
"198 -20 LINE",
"198 -20 OFFCURVE",
"266 27 OFFCURVE",
"266 27 CURVE",
"88 254 LINE",
"25 205 LINE"
);
}
);
width = 549;
}
);
unicode = 0938;
},
{
glyphname = hadeva;
lastChange = "2014-09-16 06:13:03 +0530";
layers = (
{
anchors = (
{
name = top;
position = "{303, 447}";
}
);
background = {
paths = (
{
closed = 1;
nodes = (
"-4 466 LINE",
"-4 396 LINE",
"442 396 LINE",
"442 466 LINE"
);
},
{
closed = 1;
nodes = (
"176 198 OFFCURVE",
"141 213 OFFCURVE",
"141 242 CURVE SMOOTH",
"141 265 OFFCURVE",
"167 274 OFFCURVE",
"220 274 CURVE SMOOTH",
"274 274 OFFCURVE",
"295 269 OFFCURVE",
"330 265 CURVE",
"340 272 LINE",
"340 466 LINE",
"264 466 LINE",
"264 342 LINE",
"248 345 OFFCURVE",
"226 346 OFFCURVE",
"213 346 CURVE SMOOTH",
"120 346 OFFCURVE",
"64 319 OFFCURVE",
"64 246 CURVE SMOOTH",
"64 201 OFFCURVE",
"85 177 OFFCURVE",
"116 144 CURVE",
"177 198 LINE"
);
},
{
closed = 1;
nodes = (
"65 -24 OFFCURVE",
"158 -78 OFFCURVE",
"309 -78 CURVE",
"325 -8 LINE",
"218 -8 OFFCURVE",
"138 18 OFFCURVE",
"138 78 CURVE SMOOTH",
"138 121 OFFCURVE",
"177 147 OFFCURVE",
"233 147 CURVE",
"264 145 OFFCURVE",
"289 137 OFFCURVE",
"289 112 CURVE SMOOTH",
"289 96 OFFCURVE",
"282 87 OFFCURVE",
"275 78 CURVE",
"336 34 LINE",
"352 53 OFFCURVE",
"368 77 OFFCURVE",
"368 111 CURVE SMOOTH",
"368 182 OFFCURVE",
"307 219 OFFCURVE",
"227 219 CURVE SMOOTH",
"188 219 OFFCURVE",
"161 208 OFFCURVE",
"135 195 CURVE SMOOTH",
"93 174 OFFCURVE",
"65 132 OFFCURVE",
"65 80 CURVE SMOOTH"
);
}
);
};
layerId = "CFA4B904-E3F1-48B6-A7F6-47DC1FF2A3E1";
name = Bold;
paths = (
{
closed = 1;
nodes = (
"-24 466 LINE",
"-24 396 LINE",
"452 396 LINE",
"452 466 LINE"
);
},
{
closed = 1;
nodes = (
"178 198 OFFCURVE",
"144 213 OFFCURVE",
"144 242 CURVE SMOOTH",
"144 265 OFFCURVE",
"170 272 OFFCURVE",
"220 272 CURVE SMOOTH",
"274 272 OFFCURVE",
"295 267 OFFCURVE",
"330 263 CURVE",
"340 270 LINE",
"340 466 LINE",
"264 466 LINE",
"264 342 LINE",
"248 345 OFFCURVE",
"226 346 OFFCURVE",
"213 346 CURVE SMOOTH",
"120 346 OFFCURVE",
"62 317 OFFCURVE",
"62 246 CURVE SMOOTH",
"62 201 OFFCURVE",
"83 176 OFFCURVE",
"114 143 CURVE",
"179 198 LINE"
);
},
{
closed = 1;
nodes = (
"65 -27 OFFCURVE",
"158 -80 OFFCURVE",
"309 -80 CURVE",
"325 -8 LINE",
"218 -8 OFFCURVE",
"141 18 OFFCURVE",
"141 78 CURVE SMOOTH",
"141 121 OFFCURVE",
"177 144 OFFCURVE",
"233 144 CURVE",
"264 142 OFFCURVE",
"286 136 OFFCURVE",
"286 111 CURVE SMOOTH",
"286 95 OFFCURVE",
"279 88 OFFCURVE",
"272 79 CURVE",
"336 34 LINE",
"352 53 OFFCURVE",
"368 77 OFFCURVE",
"368 111 CURVE SMOOTH",
"368 182 OFFCURVE",
"307 219 OFFCURVE",
"227 219 CURVE SMOOTH",
"188 219 OFFCURVE",
"161 208 OFFCURVE",
"135 195 CURVE SMOOTH",
"93 174 OFFCURVE",
"65 132 OFFCURVE",
"65 80 CURVE SMOOTH"
);
}
);
width = 428;
}
);
unicode = 0939;
},
{
glyphname = ghhadeva;
lastChange = "2014-09-16 06:13:03 +0530";
layers = (
{
anchors = (
{
name = bottom;
position = "{355, 5}";
},
{
name = top;
position = "{355, 447}";
}
);
background = {
paths = (
{
closed = 1;
nodes = (
"-24 466 LINE",
"-24 396 LINE",
"461 396 LINE",
"461 466 LINE"
);
},
{
closed = 1;
nodes = (
"291 0 LINE",
"376 0 LINE",
"376 466 LINE",
"291 466 LINE"
);
},
{
closed = 1;
nodes = (
"21 266 LINE",
"21 224 LINE",
"101 111 LINE",
"101 111 OFFCURVE",
"158 111 OFFCURVE",
"158 111 CURVE",
"158 266 LINE"
);
},
{
closed = 1;
nodes = (
"83 206 LINE",
"158 206 LINE",
"158 466 LINE",
"83 466 LINE"
);
}
);
};
components = (
{
name = nuktadeva;
transform = "{1, 0, 0, 1, 230, 94}";
}
);
layerId = "CFA4B904-E3F1-48B6-A7F6-47DC1FF2A3E1";
name = Bold;
paths = (
{
closed = 1;
nodes = (
"-24 466 LINE",
"-24 396 LINE",
"488 396 LINE",
"488 466 LINE"
);
},
{
closed = 1;
nodes = (
"311 0 LINE",
"396 0 LINE",
"396 466 LINE",
"311 466 LINE"
);
},
{
closed = 1;
nodes = (
"31 276 LINE",
"31 234 LINE",
"121 111 LINE",
"121 111 OFFCURVE",
"178 111 OFFCURVE",
"178 111 CURVE",
"178 276 LINE"
);
},
{
closed = 1;
nodes = (
"93 216 LINE",
"178 216 LINE",
"178 466 LINE",
"93 466 LINE"
);
}
);
width = 464;
}
);
unicode = 095A;
},
{
glyphname = zadeva;
lastChange = "2014-09-16 06:13:03 +0530";
layers = (
{
anchors = (
{
name = bottom;
position = "{452, 5}";
},
{
name = top;
position = "{452, 447}";
}
);
background = {
paths = (
{
closed = 1;
nodes = (
"-24 466 LINE",
"-24 396 LINE",
"568 396 LINE",
"568 466 LINE"
);
},
{
closed = 1;
nodes = (
"400 0 LINE",
"485 0 LINE",
"485 466 LINE",
"400 466 LINE"
);
},
{
closed = 1;
nodes = (
"231 314 LINE",
"227 243 LINE",
"435 243 LINE",
"435 314 LINE"
);
},
{
closed = 1;
nodes = (
"345 206 OFFCURVE",
"337 251 OFFCURVE",
"289 285 CURVE SMOOTH",
"278 293 OFFCURVE",
"254 306 OFFCURVE",
"241 314 CURVE",
"198 314 LINE",
"198 246 LINE",
"249 246 OFFCURVE",
"262 217 OFFCURVE",
"262 184 CURVE SMOOTH",
"262 150 OFFCURVE",
"240 127 OFFCURVE",
"204 127 CURVE SMOOTH",
"152 127 OFFCURVE",
"118 173 OFFCURVE",
"83 274 CURVE",
"10 245 LINE",
"47 124 OFFCURVE",
"105 45 OFFCURVE",
"204 45 CURVE SMOOTH",
"281 45 OFFCURVE",
"345 87 OFFCURVE",
"345 176 CURVE SMOOTH"
);
}
);
};
components = (
{
name = nuktadeva;
transform = "{1, 0, 0, 1, 128, 60}";
}
);
guideLines = (
{
angle = 90;
position = "{437, 275}";
}
);
layerId = "CFA4B904-E3F1-48B6-A7F6-47DC1FF2A3E1";
name = Bold;
paths = (
{
closed = 1;
nodes = (
"-24 466 LINE",
"-24 396 LINE",
"597 396 LINE",
"597 466 LINE"
);
},
{
closed = 1;
nodes = (
"420 0 LINE",
"505 0 LINE",
"505 466 LINE",
"420 466 LINE"
);
},
{
closed = 1;
nodes = (
"241 313 LINE",
"237 244 LINE",
"455 244 LINE",
"455 313 LINE"
);
},
{
closed = 1;
nodes = (
"351 207 OFFCURVE",
"343 252 OFFCURVE",
"295 286 CURVE SMOOTH",
"284 294 OFFCURVE",
"264 305 OFFCURVE",
"251 313 CURVE",
"208 313 LINE",
"208 247 LINE",
"259 247 OFFCURVE",
"272 218 OFFCURVE",
"272 185 CURVE SMOOTH",
"272 151 OFFCURVE",
"250 128 OFFCURVE",
"214 128 CURVE SMOOTH",
"162 128 OFFCURVE",
"128 174 OFFCURVE",
"93 275 CURVE",
"24 247 LINE",
"61 126 OFFCURVE",
"119 50 OFFCURVE",
"214 50 CURVE SMOOTH",
"291 50 OFFCURVE",
"351 97 OFFCURVE",
"351 177 CURVE SMOOTH"
);
}
);
width = 573;
}
);
unicode = 095B;
},
{
glyphname = fadeva;
lastChange = "2014-09-16 06:13:03 +0530";
layers = (
{
anchors = (
{
name = bottom;
position = "{340, 5}";
},
{
name = top;
position = "{340, 447}";
}
);
background = {
paths = (
{
closed = 1;
nodes = (
"352 226 OFFCURVE",
"298 179 OFFCURVE",
"214 179 CURVE SMOOTH",
"160 179 OFFCURVE",
"143 214 OFFCURVE",
"143 270 CURVE SMOOTH",
"143 456 LINE",
"58 456 LINE",
"58 244 LINE SMOOTH",
"58 164 OFFCURVE",
"116 103 OFFCURVE",
"216 103 CURVE SMOOTH",
"289 103 OFFCURVE",
"352 143 OFFCURVE",
"352 143 CURVE",
"352 226 LINE"
);
},
{
closed = 1;
nodes = (
"297 0 LINE",
"382 0 LINE",
"382 466 LINE",
"297 466 LINE"
);
},
{
closed = 1;
nodes = (
"-24 466 LINE",
"-24 396 LINE",
"660 396 LINE",
"660 466 LINE"
);
},
{
closed = 1;
nodes = (
"606 291 OFFCURVE",
"552 345 OFFCURVE",
"465 345 CURVE SMOOTH",
"393 345 OFFCURVE",
"360 308 OFFCURVE",
"333 290 CURVE",
"347 206 LINE",
"363 218 OFFCURVE",
"405 267 OFFCURVE",
"461 267 CURVE SMOOTH",
"506 267 OFFCURVE",
"525 236 OFFCURVE",
"525 200 CURVE SMOOTH",
"525 154 OFFCURVE",
"500 134 OFFCURVE",
"471 107 CURVE",
"531 50 LINE",
"575 88 OFFCURVE",
"606 128 OFFCURVE",
"606 199 CURVE SMOOTH"
);
}
);
};
components = (
{
name = nuktadeva;
transform = "{1, 0, 0, 1, 186, 89}";
}
);
layerId = "CFA4B904-E3F1-48B6-A7F6-47DC1FF2A3E1";
name = Bold;
paths = (
{
closed = 1;
nodes = (
"357 226 OFFCURVE",
"303 179 OFFCURVE",
"219 179 CURVE SMOOTH",
"165 179 OFFCURVE",
"148 214 OFFCURVE",
"148 270 CURVE SMOOTH",
"148 466 LINE",
"63 466 LINE",
"63 244 LINE SMOOTH",
"63 164 OFFCURVE",
"121 103 OFFCURVE",
"221 103 CURVE SMOOTH",
"294 103 OFFCURVE",
"357 143 OFFCURVE",
"357 143 CURVE",
"357 226 LINE"
);
},
{
closed = 1;
nodes = (
"302 0 LINE",
"387 0 LINE",
"387 466 LINE",
"302 466 LINE"
);
},
{
closed = 1;
nodes = (
"-24 466 LINE",
"-24 396 LINE",
"683 396 LINE",
"683 466 LINE"
);
},
{
closed = 1;
nodes = (
"612 296 OFFCURVE",
"552 345 OFFCURVE",
"470 345 CURVE SMOOTH",
"398 345 OFFCURVE",
"365 308 OFFCURVE",
"338 290 CURVE",
"352 210 LINE",
"368 222 OFFCURVE",
"420 267 OFFCURVE",
"466 267 CURVE SMOOTH",
"511 267 OFFCURVE",
"530 241 OFFCURVE",
"530 205 CURVE SMOOTH",
"530 159 OFFCURVE",
"497 132 OFFCURVE",
"476 112 CURVE",
"533 55 LINE",
"573 88 OFFCURVE",
"612 134 OFFCURVE",
"612 204 CURVE SMOOTH"
);
}
);
width = 659;
}
);
unicode = 095E;
},
{
glyphname = aasigndeva;
lastChange = "2014-09-16 06:13:03 +0530";
layers = (
{
background = {
paths = (
{
closed = 1;
nodes = (
"80 0 LINE",
"135 0 LINE",
"135 456 LINE",
"80 456 LINE"
);
},
{
closed = 1;
nodes = (
"-24 456 LINE",
"-24 408 LINE",
"237 408 LINE",
"237 456 LINE"
);
}
);
};
layerId = "CFA4B904-E3F1-48B6-A7F6-47DC1FF2A3E1";
name = Bold;
paths = (
{
closed = 1;
nodes = (
"-24 466 LINE",
"-24 396 LINE",
"237 396 LINE",
"237 466 LINE"
);
},
{
closed = 1;
nodes = (
"65 0 LINE",
"150 0 LINE",
"150 466 LINE",
"65 466 LINE"
);
}
);
width = 213;
}
);
unicode = 093E;
},
{
glyphname = esigndeva;
lastChange = "2014-09-16 06:13:03 +0530";
layers = (
{
anchors = (
{
name = _top;
position = "{-94, 447}";
}
);
background = {
paths = (
{
closed = 1;
nodes = (
"-177 588 LINE",
"-208 624 OFFCURVE",
"-226 637 OFFCURVE",
"-264 637 CURVE SMOOTH",
"-296 637 OFFCURVE",
"-326 622 OFFCURVE",
"-326 622 CURVE SMOOTH",
"-326 622 OFFCURVE",
"-305 575 OFFCURVE",
"-305 575 CURVE SMOOTH",
"-305 575 OFFCURVE",
"-286 586 OFFCURVE",
"-264 586 CURVE SMOOTH",
"-243 586 OFFCURVE",
"-234 578 OFFCURVE",
"-218 559 CURVE",
"-121 437 LINE",
"-59 437 LINE"
);
}
);
};
layerId = "CFA4B904-E3F1-48B6-A7F6-47DC1FF2A3E1";
name = Bold;
paths = (
{
closed = 1;
nodes = (
"-147 588 LINE",
"-190 638 OFFCURVE",
"-216 657 OFFCURVE",
"-264 657 CURVE SMOOTH",
"-296 657 OFFCURVE",
"-334 638 OFFCURVE",
"-334 638 CURVE SMOOTH",
"-334 638 OFFCURVE",
"-305 575 OFFCURVE",
"-305 575 CURVE SMOOTH",
"-305 575 OFFCURVE",
"-286 586 OFFCURVE",
"-264 586 CURVE SMOOTH",
"-243 586 OFFCURVE",
"-231 574 OFFCURVE",
"-209 548 CURVE",
"-121 437 LINE",
"-29 437 LINE"
);
}
);
width = 0;
}
);
unicode = 0947;
},
{
glyphname = nuktadeva;
lastChange = "2014-09-16 06:13:03 +0530";
layers = (
{
background = {
paths = (
{
closed = 1;
nodes = (
"-12 -104 OFFCURVE",
"2 -90 OFFCURVE",
"2 -70 CURVE SMOOTH",
"2 -49 OFFCURVE",
"-12 -35 OFFCURVE",
"-33 -35 CURVE SMOOTH",
"-53 -35 OFFCURVE",
"-67 -49 OFFCURVE",
"-67 -70 CURVE SMOOTH",
"-67 -90 OFFCURVE",
"-53 -104 OFFCURVE",
"-33 -104 CURVE SMOOTH"
);
}
